<?xml version="1.0" encoding="UTF-8" standalone="no"?>
<!DOCTYPE svg PUBLIC "-//W3C//DTD SVG 1.1//EN"
 "http://www.w3.org/Graphics/SVG/1.1/DTD/svg11.dtd">
<!-- Generated by graphviz version 2.40.1 (20161225.0304)
 -->
<!-- Title: models_diagram Pages: 1 -->
<svg width="2125pt" height="1380pt"
 viewBox="0.00 0.00 2125.43 1379.85" xmlns="http://www.w3.org/2000/svg" xmlns:xlink="http://www.w3.org/1999/xlink">
<g id="graph0" class="graph" transform="scale(1 1) rotate(0) translate(36 1343.8451)">
<title>models_diagram</title>
<polygon fill="#ffffff" stroke="transparent" points="-36,36 -36,-1343.8451 2089.4296,-1343.8451 2089.4296,36 -36,36"/>
<!-- Map -->
<g id="node1" class="node">
<title>Map</title>
<polygon fill="#add8e6" stroke="transparent" points="0,-799.8451 0,-821.8451 126,-821.8451 126,-799.8451 0,-799.8451"/>
<polygon fill="none" stroke="#000000" points="0,-799.8451 0,-821.8451 126,-821.8451 126,-799.8451 0,-799.8451"/>
<text text-anchor="start" x="53.836" y="-808.8451" font-family="Times,serif" font-weight="bold" font-size="10.00" fill="#000000">Map</text>
<polygon fill="none" stroke="#000000" points="0,-777.8451 0,-799.8451 126,-799.8451 126,-777.8451 0,-777.8451"/>
<text text-anchor="start" x="5" y="-786.8451" font-family="Times,serif" text-decoration="underline" font-size="10.00" fill="#000000">id</text>
<text text-anchor="start" x="12.779" y="-786.8451" font-family="Times,serif" font-size="10.00" fill="#000000">: NUMBER</text>
<polygon fill="none" stroke="#000000" points="0,-755.8451 0,-777.8451 126,-777.8451 126,-755.8451 0,-755.8451"/>
<text text-anchor="start" x="5" y="-763.8451" font-family="Times,serif" font-size="10.00" fill="#000000">scriptName: STRING</text>
<polygon fill="none" stroke="#000000" points="0,-733.8451 0,-755.8451 126,-755.8451 126,-733.8451 0,-733.8451"/>
<text text-anchor="start" x="5" y="-741.8451" font-family="Times,serif" font-size="10.00" fill="#000000">fileName: STRING</text>
<polygon fill="none" stroke="#000000" points="0,-711.8451 0,-733.8451 126,-733.8451 126,-711.8451 0,-711.8451"/>
<text text-anchor="start" x="5" y="-719.8451" font-family="Times,serif" font-size="10.00" fill="#000000">description: TEXT</text>
<polygon fill="none" stroke="#000000" points="0,-689.8451 0,-711.8451 126,-711.8451 126,-689.8451 0,-689.8451"/>
<text text-anchor="start" x="5" y="-697.8451" font-family="Times,serif" font-size="10.00" fill="#000000">mapHardness: NUMBER</text>
<polygon fill="none" stroke="#000000" points="0,-667.8451 0,-689.8451 126,-689.8451 126,-667.8451 0,-667.8451"/>
<text text-anchor="start" x="5" y="-675.8451" font-family="Times,serif" font-size="10.00" fill="#000000">gravity: NUMBER</text>
<polygon fill="none" stroke="#000000" points="0,-645.8451 0,-667.8451 126,-667.8451 126,-645.8451 0,-645.8451"/>
<text text-anchor="start" x="5" y="-653.8451" font-family="Times,serif" font-size="10.00" fill="#000000">tidalStrength: NUMBER</text>
<polygon fill="none" stroke="#000000" points="0,-623.8451 0,-645.8451 126,-645.8451 126,-623.8451 0,-623.8451"/>
<text text-anchor="start" x="5" y="-631.8451" font-family="Times,serif" font-size="10.00" fill="#000000">maxMetal: NUMBER</text>
<polygon fill="none" stroke="#000000" points="0,-601.8451 0,-623.8451 126,-623.8451 126,-601.8451 0,-601.8451"/>
<text text-anchor="start" x="5" y="-609.8451" font-family="Times,serif" font-size="10.00" fill="#000000">extractorRadius: NUMBER</text>
<polygon fill="none" stroke="#000000" points="0,-579.8451 0,-601.8451 126,-601.8451 126,-579.8451 0,-579.8451"/>
<text text-anchor="start" x="5" y="-587.8451" font-family="Times,serif" font-size="10.00" fill="#000000">minWind: NUMBER</text>
<polygon fill="none" stroke="#000000" points="0,-557.8451 0,-579.8451 126,-579.8451 126,-557.8451 0,-557.8451"/>
<text text-anchor="start" x="5" y="-565.8451" font-family="Times,serif" font-size="10.00" fill="#000000">maxWind: NUMBER</text>
<polygon fill="none" stroke="#000000" points="0,-535.8451 0,-557.8451 126,-557.8451 126,-535.8451 0,-535.8451"/>
<text text-anchor="start" x="5" y="-543.8451" font-family="Times,serif" font-size="10.00" fill="#000000">startPositions: JSON</text>
<polygon fill="none" stroke="#000000" points="0,-513.8451 0,-535.8451 126,-535.8451 126,-513.8451 0,-513.8451"/>
<text text-anchor="start" x="5" y="-521.8451" font-family="Times,serif" font-size="10.00" fill="#000000">width: NUMBER</text>
<polygon fill="none" stroke="#000000" points="0,-491.8451 0,-513.8451 126,-513.8451 126,-491.8451 0,-491.8451"/>
<text text-anchor="start" x="5" y="-499.8451" font-family="Times,serif" font-size="10.00" fill="#000000">height: NUMBER</text>
<polygon fill="none" stroke="#000000" points="0,-469.8451 0,-491.8451 126,-491.8451 126,-469.8451 0,-469.8451"/>
<text text-anchor="start" x="5" y="-477.8451" font-family="Times,serif" font-size="10.00" fill="#000000">minDepth: NUMBER</text>
<polygon fill="none" stroke="#000000" points="0,-447.8451 0,-469.8451 126,-469.8451 126,-447.8451 0,-447.8451"/>
<text text-anchor="start" x="5" y="-455.8451" font-family="Times,serif" font-size="10.00" fill="#000000">maxDepth: NUMBER</text>
<polygon fill="none" stroke="#000000" points="0,-425.8451 0,-447.8451 126,-447.8451 126,-425.8451 0,-425.8451"/>
<text text-anchor="start" x="5" y="-433.8451" font-family="Times,serif" font-size="10.00" fill="#000000">name: STRING</text>
<polygon fill="none" stroke="#000000" points="0,-403.8451 0,-425.8451 126,-425.8451 126,-403.8451 0,-403.8451"/>
<text text-anchor="start" x="5" y="-411.8451" font-family="Times,serif" font-size="10.00" fill="#000000">shortname: STRING</text>
<polygon fill="none" stroke="#000000" points="0,-381.8451 0,-403.8451 126,-403.8451 126,-381.8451 0,-381.8451"/>
<text text-anchor="start" x="5" y="-389.8451" font-family="Times,serif" font-size="10.00" fill="#000000">author: STRING</text>
<polygon fill="none" stroke="#000000" points="0,-359.8451 0,-381.8451 126,-381.8451 126,-359.8451 0,-359.8451"/>
<text text-anchor="start" x="5" y="-367.8451" font-family="Times,serif" font-size="10.00" fill="#000000">version: STRING</text>
<polygon fill="none" stroke="#000000" points="0,-337.8451 0,-359.8451 126,-359.8451 126,-337.8451 0,-337.8451"/>
<text text-anchor="start" x="5" y="-345.8451" font-family="Times,serif" font-size="10.00" fill="#000000">mapfile: STRING</text>
<polygon fill="none" stroke="#000000" points="0,-315.8451 0,-337.8451 126,-337.8451 126,-315.8451 0,-315.8451"/>
<text text-anchor="start" x="5" y="-323.8451" font-family="Times,serif" font-size="10.00" fill="#000000">modtype: NUMBER</text>
<polygon fill="none" stroke="#000000" points="0,-293.8451 0,-315.8451 126,-315.8451 126,-293.8451 0,-293.8451"/>
<text text-anchor="start" x="5" y="-301.8451" font-family="Times,serif" font-size="10.00" fill="#000000">notDeformable: BOOLEAN</text>
<polygon fill="none" stroke="#000000" points="0,-271.8451 0,-293.8451 126,-293.8451 126,-271.8451 0,-271.8451"/>
<text text-anchor="start" x="5" y="-279.8451" font-family="Times,serif" font-size="10.00" fill="#000000">voidWater: BOOLEAN</text>
<polygon fill="none" stroke="#000000" points="0,-249.8451 0,-271.8451 126,-271.8451 126,-249.8451 0,-249.8451"/>
<text text-anchor="start" x="5" y="-257.8451" font-family="Times,serif" font-size="10.00" fill="#000000">voidGround: BOOLEAN</text>
<polygon fill="none" stroke="#000000" points="0,-227.8451 0,-249.8451 126,-249.8451 126,-227.8451 0,-227.8451"/>
<text text-anchor="start" x="4.8185" y="-235.8451" font-family="Times,serif" font-size="10.00" fill="#000000">autoShowMetal: BOOLEAN</text>
<polygon fill="none" stroke="#000000" points="0,-205.8451 0,-227.8451 126,-227.8451 126,-205.8451 0,-205.8451"/>
<text text-anchor="start" x="5" y="-213.8451" font-family="Times,serif" font-size="10.00" fill="#000000">createdAt: DATE</text>
<polygon fill="none" stroke="#000000" points="0,-183.8451 0,-205.8451 126,-205.8451 126,-183.8451 0,-183.8451"/>
<text text-anchor="start" x="5" y="-191.8451" font-family="Times,serif" font-size="10.00" fill="#000000">updatedAt: DATE</text>
</g>
<!-- Demo -->
<g id="node2" class="node">
<title>Demo</title>
<polygon fill="#add8e6" stroke="transparent" points="812.4699,-460.6502 812.4699,-482.6502 960.4699,-482.6502 960.4699,-460.6502 812.4699,-460.6502"/>
<polygon fill="none" stroke="#000000" points="812.4699,-460.6502 812.4699,-482.6502 960.4699,-482.6502 960.4699,-460.6502 812.4699,-460.6502"/>
<text text-anchor="start" x="874.2514" y="-469.6502" font-family="Times,serif" font-weight="bold" font-size="10.00" fill="#000000">Demo</text>
<polygon fill="none" stroke="#000000" points="812.4699,-438.6502 812.4699,-460.6502 960.4699,-460.6502 960.4699,-438.6502 812.4699,-438.6502"/>
<text text-anchor="start" x="817.4699" y="-447.6502" font-family="Times,serif" text-decoration="underline" font-size="10.00" fill="#000000">id</text>
<text text-anchor="start" x="825.2489" y="-447.6502" font-family="Times,serif" font-size="10.00" fill="#000000">: STRING</text>
<polygon fill="none" stroke="#000000" points="812.4699,-416.6502 812.4699,-438.6502 960.4699,-438.6502 960.4699,-416.6502 812.4699,-416.6502"/>
<text text-anchor="start" x="817.4699" y="-424.6502" font-family="Times,serif" font-size="10.00" fill="#000000">fileName: STRING</text>
<polygon fill="none" stroke="#000000" points="812.4699,-394.6502 812.4699,-416.6502 960.4699,-416.6502 960.4699,-394.6502 812.4699,-394.6502"/>
<text text-anchor="start" x="817.4699" y="-402.6502" font-family="Times,serif" font-size="10.00" fill="#000000">engineVersion: STRING</text>
<polygon fill="none" stroke="#000000" points="812.4699,-372.6502 812.4699,-394.6502 960.4699,-394.6502 960.4699,-372.6502 812.4699,-372.6502"/>
<text text-anchor="start" x="817.4699" y="-380.6502" font-family="Times,serif" font-size="10.00" fill="#000000">gameVersion: STRING</text>
<polygon fill="none" stroke="#000000" points="812.4699,-350.6502 812.4699,-372.6502 960.4699,-372.6502 960.4699,-350.6502 812.4699,-350.6502"/>
<text text-anchor="start" x="817.4699" y="-358.6502" font-family="Times,serif" font-size="10.00" fill="#000000">startTime: DATE</text>
<polygon fill="none" stroke="#000000" points="812.4699,-328.6502 812.4699,-350.6502 960.4699,-350.6502 960.4699,-328.6502 812.4699,-328.6502"/>
<text text-anchor="start" x="817.4699" y="-336.6502" font-family="Times,serif" font-size="10.00" fill="#000000">durationMs: NUMBER</text>
<polygon fill="none" stroke="#000000" points="812.4699,-306.6502 812.4699,-328.6502 960.4699,-328.6502 960.4699,-306.6502 812.4699,-306.6502"/>
<text text-anchor="start" x="817.4699" y="-314.6502" font-family="Times,serif" font-size="10.00" fill="#000000">fullDurationMs: NUMBER</text>
<polygon fill="none" stroke="#000000" points="812.4699,-284.6502 812.4699,-306.6502 960.4699,-306.6502 960.4699,-284.6502 812.4699,-284.6502"/>
<text text-anchor="start" x="817.4699" y="-292.6502" font-family="Times,serif" font-size="10.00" fill="#000000">hostSettings: JSON</text>
<polygon fill="none" stroke="#000000" points="812.4699,-262.6502 812.4699,-284.6502 960.4699,-284.6502 960.4699,-262.6502 812.4699,-262.6502"/>
<text text-anchor="start" x="817.4699" y="-270.6502" font-family="Times,serif" font-size="10.00" fill="#000000">gameSettings: JSON</text>
<polygon fill="none" stroke="#000000" points="812.4699,-240.6502 812.4699,-262.6502 960.4699,-262.6502 960.4699,-240.6502 812.4699,-240.6502"/>
<text text-anchor="start" x="817.4699" y="-248.6502" font-family="Times,serif" font-size="10.00" fill="#000000">mapSettings: JSON</text>
<polygon fill="none" stroke="#000000" points="812.4699,-218.6502 812.4699,-240.6502 960.4699,-240.6502 960.4699,-218.6502 812.4699,-218.6502"/>
<text text-anchor="start" x="817.1844" y="-226.6502" font-family="Times,serif" font-size="10.00" fill="#000000">gameEndedNormally: BOOLEAN</text>
<polygon fill="none" stroke="#000000" points="812.4699,-196.6502 812.4699,-218.6502 960.4699,-218.6502 960.4699,-196.6502 812.4699,-196.6502"/>
<text text-anchor="start" x="817.4699" y="-204.6502" font-family="Times,serif" font-size="10.00" fill="#000000">chatlog: JSON</text>
<polygon fill="none" stroke="#000000" points="812.4699,-174.6502 812.4699,-196.6502 960.4699,-196.6502 960.4699,-174.6502 812.4699,-174.6502"/>
<text text-anchor="start" x="817.4699" y="-182.6502" font-family="Times,serif" font-size="10.00" fill="#000000">hasBots: BOOLEAN</text>
<polygon fill="none" stroke="#000000" points="812.4699,-152.6502 812.4699,-174.6502 960.4699,-174.6502 960.4699,-152.6502 812.4699,-152.6502"/>
<text text-anchor="start" x="817.4699" y="-160.6502" font-family="Times,serif" font-size="10.00" fill="#000000">preset: STRING</text>
<polygon fill="none" stroke="#000000" points="812.4699,-130.6502 812.4699,-152.6502 960.4699,-152.6502 960.4699,-130.6502 812.4699,-130.6502"/>
<text text-anchor="start" x="817.4699" y="-138.6502" font-family="Times,serif" font-size="10.00" fill="#000000">reported: BOOLEAN</text>
<polygon fill="none" stroke="#000000" points="812.4699,-108.6502 812.4699,-130.6502 960.4699,-130.6502 960.4699,-108.6502 812.4699,-108.6502"/>
<text text-anchor="start" x="817.4699" y="-116.6502" font-family="Times,serif" font-size="10.00" fill="#000000">createdAt: DATE</text>
<polygon fill="none" stroke="#000000" points="812.4699,-86.6502 812.4699,-108.6502 960.4699,-108.6502 960.4699,-86.6502 812.4699,-86.6502"/>
<text text-anchor="start" x="817.4699" y="-94.6502" font-family="Times,serif" font-size="10.00" fill="#000000">updatedAt: DATE</text>
<polygon fill="none" stroke="#000000" points="812.4699,-64.6502 812.4699,-86.6502 960.4699,-86.6502 960.4699,-64.6502 812.4699,-64.6502"/>
<text text-anchor="start" x="817.4699" y="-73.6502" font-family="Times,serif" font-style="italic" text-decoration="underline" font-size="10.00" fill="#000000">mapId</text>
<text text-anchor="start" x="843.0169" y="-73.6502" font-family="Times,serif" font-size="10.00" fill="#000000">: NUMBER</text>
</g>
<!-- Demo&#45;&gt;Map -->
<g id="edge1" class="edge">
<title>Demo&#45;&gt;Map</title>
<path fill="none" stroke="#000000" stroke-width=".75" d="M806.0991,-296.0197C642.5822,-341.531 274.1723,-444.0699 126.2422,-485.243"/>
<polygon fill="#000000" stroke="#000000" stroke-width=".75" points="806.524,-295.9015 813.0283,-296.8937 809.4142,-295.097 812.3043,-294.2926 812.3043,-294.2926 812.3043,-294.2926 809.4142,-295.097 811.5803,-291.6915 806.524,-295.9015 806.524,-295.9015"/>
</g>
<!-- AllyTeam -->
<g id="node3" class="node">
<title>AllyTeam</title>
<polygon fill="#add8e6" stroke="transparent" points="827.4699,-798.04 827.4699,-820.04 945.4699,-820.04 945.4699,-798.04 827.4699,-798.04"/>
<polygon fill="none" stroke="#000000" points="827.4699,-798.04 827.4699,-820.04 945.4699,-820.04 945.4699,-798.04 827.4699,-798.04"/>
<text text-anchor="start" x="866.1984" y="-807.04" font-family="Times,serif" font-weight="bold" font-size="10.00" fill="#000000">AllyTeam</text>
<polygon fill="none" stroke="#000000" points="827.4699,-776.04 827.4699,-798.04 945.4699,-798.04 945.4699,-776.04 827.4699,-776.04"/>
<text text-anchor="start" x="832.4699" y="-785.04" font-family="Times,serif" text-decoration="underline" font-size="10.00" fill="#000000">id</text>
<text text-anchor="start" x="840.2489" y="-785.04" font-family="Times,serif" font-size="10.00" fill="#000000">: NUMBER</text>
<polygon fill="none" stroke="#000000" points="827.4699,-754.04 827.4699,-776.04 945.4699,-776.04 945.4699,-754.04 827.4699,-754.04"/>
<text text-anchor="start" x="832.4699" y="-762.04" font-family="Times,serif" font-size="10.00" fill="#000000">allyTeamId: NUMBER</text>
<polygon fill="none" stroke="#000000" points="827.4699,-732.04 827.4699,-754.04 945.4699,-754.04 945.4699,-732.04 827.4699,-732.04"/>
<text text-anchor="start" x="832.4699" y="-740.04" font-family="Times,serif" font-size="10.00" fill="#000000">startBox: JSON</text>
<polygon fill="none" stroke="#000000" points="827.4699,-710.04 827.4699,-732.04 945.4699,-732.04 945.4699,-710.04 827.4699,-710.04"/>
<text text-anchor="start" x="832.1774" y="-718.04" font-family="Times,serif" font-size="10.00" fill="#000000">winningTeam: BOOLEAN</text>
<polygon fill="none" stroke="#000000" points="827.4699,-688.04 827.4699,-710.04 945.4699,-710.04 945.4699,-688.04 827.4699,-688.04"/>
<text text-anchor="start" x="832.4699" y="-696.04" font-family="Times,serif" font-size="10.00" fill="#000000">createdAt: DATE</text>
<polygon fill="none" stroke="#000000" points="827.4699,-666.04 827.4699,-688.04 945.4699,-688.04 945.4699,-666.04 827.4699,-666.04"/>
<text text-anchor="start" x="832.4699" y="-674.04" font-family="Times,serif" font-size="10.00" fill="#000000">updatedAt: DATE</text>
<polygon fill="none" stroke="#000000" points="827.4699,-644.04 827.4699,-666.04 945.4699,-666.04 945.4699,-644.04 827.4699,-644.04"/>
<text text-anchor="start" x="832.4699" y="-653.04" font-family="Times,serif" font-style="italic" text-decoration="underline" font-size="10.00" fill="#000000">demoId</text>
<text text-anchor="start" x="863.0169" y="-653.04" font-family="Times,serif" font-size="10.00" fill="#000000">: STRING</text>
</g>
<!-- AllyTeam&#45;&gt;Demo -->
<g id="edge2" class="edge">
<title>AllyTeam&#45;&gt;Demo</title>
<path fill="none" stroke="#000000" stroke-width=".75" d="M886.4699,-637.9277C886.4699,-592.8774 886.4699,-537.0006 886.4699,-482.6502"/>
<polygon fill="#000000" stroke="#000000" stroke-width=".75" points="886.47,-637.9291 883.7699,-643.9291 886.47,-640.9291 886.4699,-643.9291 886.4699,-643.9291 886.4699,-643.9291 886.47,-640.9291 889.1699,-643.9292 886.47,-637.9291 886.47,-637.9291"/>
</g>
<!-- Player -->
<g id="node4" class="node">
<title>Player</title>
<polygon fill="#add8e6" stroke="transparent" points="1261.4245,-1049.6902 1261.4245,-1071.6902 1383.4245,-1071.6902 1383.4245,-1049.6902 1261.4245,-1049.6902"/>
<polygon fill="none" stroke="#000000" points="1261.4245,-1049.6902 1261.4245,-1071.6902 1383.4245,-1071.6902 1383.4245,-1049.6902 1261.4245,-1049.6902"/>
<text text-anchor="start" x="1309.652" y="-1058.6902" font-family="Times,serif" font-weight="bold" font-size="10.00" fill="#000000">Player</text>
<polygon fill="none" stroke="#000000" points="1261.4245,-1027.6902 1261.4245,-1049.6902 1383.4245,-1049.6902 1383.4245,-1027.6902 1261.4245,-1027.6902"/>
<text text-anchor="start" x="1266.4245" y="-1036.6902" font-family="Times,serif" text-decoration="underline" font-size="10.00" fill="#000000">id</text>
<text text-anchor="start" x="1274.2035" y="-1036.6902" font-family="Times,serif" font-size="10.00" fill="#000000">: NUMBER</text>
<polygon fill="none" stroke="#000000" points="1261.4245,-1005.6902 1261.4245,-1027.6902 1383.4245,-1027.6902 1383.4245,-1005.6902 1261.4245,-1005.6902"/>
<text text-anchor="start" x="1266.4245" y="-1013.6902" font-family="Times,serif" font-size="10.00" fill="#000000">playerId: NUMBER</text>
<polygon fill="none" stroke="#000000" points="1261.4245,-983.6902 1261.4245,-1005.6902 1383.4245,-1005.6902 1383.4245,-983.6902 1261.4245,-983.6902"/>
<text text-anchor="start" x="1266.4245" y="-991.6902" font-family="Times,serif" font-size="10.00" fill="#000000">name: STRING</text>
<polygon fill="none" stroke="#000000" points="1261.4245,-961.6902 1261.4245,-983.6902 1383.4245,-983.6902 1383.4245,-961.6902 1261.4245,-961.6902"/>
<text text-anchor="start" x="1266.4245" y="-969.6902" font-family="Times,serif" font-size="10.00" fill="#000000">teamId: NUMBER</text>
<polygon fill="none" stroke="#000000" points="1261.4245,-939.6902 1261.4245,-961.6902 1383.4245,-961.6902 1383.4245,-939.6902 1261.4245,-939.6902"/>
<text text-anchor="start" x="1266.4245" y="-947.6902" font-family="Times,serif" font-size="10.00" fill="#000000">handicap: NUMBER</text>
<polygon fill="none" stroke="#000000" points="1261.4245,-917.6902 1261.4245,-939.6902 1383.4245,-939.6902 1383.4245,-917.6902 1261.4245,-917.6902"/>
<text text-anchor="start" x="1266.4245" y="-925.6902" font-family="Times,serif" font-size="10.00" fill="#000000">faction: STRING</text>
<polygon fill="none" stroke="#000000" points="1261.4245,-895.6902 1261.4245,-917.6902 1383.4245,-917.6902 1383.4245,-895.6902 1261.4245,-895.6902"/>
<text text-anchor="start" x="1266.4245" y="-903.6902" font-family="Times,serif" font-size="10.00" fill="#000000">countryCode: STRING</text>
<polygon fill="none" stroke="#000000" points="1261.4245,-873.6902 1261.4245,-895.6902 1383.4245,-895.6902 1383.4245,-873.6902 1261.4245,-873.6902"/>
<text text-anchor="start" x="1266.4245" y="-881.6902" font-family="Times,serif" font-size="10.00" fill="#000000">rgbColor: JSON</text>
<polygon fill="none" stroke="#000000" points="1261.4245,-851.6902 1261.4245,-873.6902 1383.4245,-873.6902 1383.4245,-851.6902 1261.4245,-851.6902"/>
<text text-anchor="start" x="1266.4245" y="-859.6902" font-family="Times,serif" font-size="10.00" fill="#000000">rank: NUMBER</text>
<polygon fill="none" stroke="#000000" points="1261.4245,-829.6902 1261.4245,-851.6902 1383.4245,-851.6902 1383.4245,-829.6902 1261.4245,-829.6902"/>
<text text-anchor="start" x="1266.184" y="-837.6902" font-family="Times,serif" font-size="10.00" fill="#000000">skillUncertainty: NUMBER</text>
<polygon fill="none" stroke="#000000" points="1261.4245,-807.6902 1261.4245,-829.6902 1383.4245,-829.6902 1383.4245,-807.6902 1261.4245,-807.6902"/>
<text text-anchor="start" x="1266.4245" y="-815.6902" font-family="Times,serif" font-size="10.00" fill="#000000">skill: STRING</text>
<polygon fill="none" stroke="#000000" points="1261.4245,-785.6902 1261.4245,-807.6902 1383.4245,-807.6902 1383.4245,-785.6902 1261.4245,-785.6902"/>
<text text-anchor="start" x="1266.4245" y="-793.6902" font-family="Times,serif" font-size="10.00" fill="#000000">trueSkill: NUMBER</text>
<polygon fill="none" stroke="#000000" points="1261.4245,-763.6902 1261.4245,-785.6902 1383.4245,-785.6902 1383.4245,-763.6902 1261.4245,-763.6902"/>
<text text-anchor="start" x="1266.4245" y="-771.6902" font-family="Times,serif" font-size="10.00" fill="#000000">startPos: JSON</text>
<polygon fill="none" stroke="#000000" points="1261.4245,-741.6902 1261.4245,-763.6902 1383.4245,-763.6902 1383.4245,-741.6902 1261.4245,-741.6902"/>
<text text-anchor="start" x="1266.4245" y="-749.6902" font-family="Times,serif" font-size="10.00" fill="#000000">createdAt: DATE</text>
<polygon fill="none" stroke="#000000" points="1261.4245,-719.6902 1261.4245,-741.6902 1383.4245,-741.6902 1383.4245,-719.6902 1261.4245,-719.6902"/>
<text text-anchor="start" x="1266.4245" y="-727.6902" font-family="Times,serif" font-size="10.00" fill="#000000">updatedAt: DATE</text>
<polygon fill="none" stroke="#000000" points="1261.4245,-697.6902 1261.4245,-719.6902 1383.4245,-719.6902 1383.4245,-697.6902 1261.4245,-697.6902"/>
<text text-anchor="start" x="1266.4245" y="-706.6902" font-family="Times,serif" font-style="italic" text-decoration="underline" font-size="10.00" fill="#000000">allyTeamId</text>
<text text-anchor="start" x="1312.5165" y="-706.6902" font-family="Times,serif" font-size="10.00" fill="#000000">: NUMBER</text>
<polygon fill="none" stroke="#000000" points="1261.4245,-675.6902 1261.4245,-697.6902 1383.4245,-697.6902 1383.4245,-675.6902 1261.4245,-675.6902"/>
<text text-anchor="start" x="1266.4245" y="-684.6902" font-family="Times,serif" font-style="italic" text-decoration="underline" font-size="10.00" fill="#000000">userId</text>
<text text-anchor="start" x="1291.4105" y="-684.6902" font-family="Times,serif" font-size="10.00" fill="#000000">: NUMBER</text>
</g>
<!-- Player&#45;&gt;AllyTeam -->
<g id="edge3" class="edge">
<title>Player&#45;&gt;AllyTeam</title>
<path fill="none" stroke="#000000" stroke-width=".75" d="M1255.6129,-851.9818C1171.0182,-824.4953 1026.5798,-777.5644 945.737,-751.297"/>
<polygon fill="#000000" stroke="#000000" stroke-width=".75" points="1255.6415,-851.991 1260.5135,-856.413 1258.4947,-852.9181 1261.3478,-853.8452 1261.3478,-853.8452 1261.3478,-853.8452 1258.4947,-852.9181 1262.1822,-851.2773 1255.6415,-851.991 1255.6415,-851.991"/>
</g>
<!-- User -->
<g id="node7" class="node">
<title>User</title>
<polygon fill="#add8e6" stroke="transparent" points="1530.8592,-590.8451 1530.8592,-612.8451 1652.8592,-612.8451 1652.8592,-590.8451 1530.8592,-590.8451"/>
<polygon fill="none" stroke="#000000" points="1530.8592,-590.8451 1530.8592,-612.8451 1652.8592,-612.8451 1652.8592,-590.8451 1530.8592,-590.8451"/>
<text text-anchor="start" x="1582.4212" y="-599.8451" font-family="Times,serif" font-weight="bold" font-size="10.00" fill="#000000">User</text>
<polygon fill="none" stroke="#000000" points="1530.8592,-568.8451 1530.8592,-590.8451 1652.8592,-590.8451 1652.8592,-568.8451 1530.8592,-568.8451"/>
<text text-anchor="start" x="1535.8592" y="-577.8451" font-family="Times,serif" text-decoration="underline" font-size="10.00" fill="#000000">id</text>
<text text-anchor="start" x="1543.6382" y="-577.8451" font-family="Times,serif" font-size="10.00" fill="#000000">: NUMBER</text>
<polygon fill="none" stroke="#000000" points="1530.8592,-546.8451 1530.8592,-568.8451 1652.8592,-568.8451 1652.8592,-546.8451 1530.8592,-546.8451"/>
<text text-anchor="start" x="1535.8592" y="-554.8451" font-family="Times,serif" font-size="10.00" fill="#000000">username: STRING</text>
<polygon fill="none" stroke="#000000" points="1530.8592,-524.8451 1530.8592,-546.8451 1652.8592,-546.8451 1652.8592,-524.8451 1530.8592,-524.8451"/>
<text text-anchor="start" x="1535.8592" y="-532.8451" font-family="Times,serif" font-size="10.00" fill="#000000">countryCode: STRING</text>
<polygon fill="none" stroke="#000000" points="1530.8592,-502.8451 1530.8592,-524.8451 1652.8592,-524.8451 1652.8592,-502.8451 1530.8592,-502.8451"/>
<text text-anchor="start" x="1535.8592" y="-510.8451" font-family="Times,serif" font-size="10.00" fill="#000000">rank: NUMBER</text>
<polygon fill="none" stroke="#000000" points="1530.8592,-480.8451 1530.8592,-502.8451 1652.8592,-502.8451 1652.8592,-480.8451 1530.8592,-480.8451"/>
<text text-anchor="start" x="1535.8592" y="-488.8451" font-family="Times,serif" font-size="10.00" fill="#000000">skill: STRING</text>
<polygon fill="none" stroke="#000000" points="1530.8592,-458.8451 1530.8592,-480.8451 1652.8592,-480.8451 1652.8592,-458.8451 1530.8592,-458.8451"/>
<text text-anchor="start" x="1535.8592" y="-466.8451" font-family="Times,serif" font-size="10.00" fill="#000000">trueSkill: NUMBER</text>
<polygon fill="none" stroke="#000000" points="1530.8592,-436.8451 1530.8592,-458.8451 1652.8592,-458.8451 1652.8592,-436.8451 1530.8592,-436.8451"/>
<text text-anchor="start" x="1535.6187" y="-444.8451" font-family="Times,serif" font-size="10.00" fill="#000000">skillUncertainty: NUMBER</text>
<polygon fill="none" stroke="#000000" points="1530.8592,-414.8451 1530.8592,-436.8451 1652.8592,-436.8451 1652.8592,-414.8451 1530.8592,-414.8451"/>
<text text-anchor="start" x="1535.8592" y="-422.8451" font-family="Times,serif" font-size="10.00" fill="#000000">createdAt: DATE</text>
<polygon fill="none" stroke="#000000" points="1530.8592,-392.8451 1530.8592,-414.8451 1652.8592,-414.8451 1652.8592,-392.8451 1530.8592,-392.8451"/>
<text text-anchor="start" x="1535.8592" y="-400.8451" font-family="Times,serif" font-size="10.00" fill="#000000">updatedAt: DATE</text>
</g>
<!-- Player&#45;&gt;User -->
<g id="edge4" class="edge">
<title>Player&#45;&gt;User</title>
<path fill="none" stroke="#000000" stroke-width=".75" d="M1387.2075,-784.5241C1430.803,-724.52 1487.9182,-645.9077 1530.7295,-586.9829"/>
<polygon fill="#000000" stroke="#000000" stroke-width=".75" points="1387.0901,-784.6856 1381.379,-787.9527 1385.3268,-787.1126 1383.5634,-789.5397 1383.5634,-789.5397 1383.5634,-789.5397 1385.3268,-787.1126 1385.7478,-791.1267 1387.0901,-784.6856 1387.0901,-784.6856"/>
</g>
<!-- Spectator -->
<g id="node5" class="node">
<title>Spectator</title>
<polygon fill="#add8e6" stroke="transparent" points="1261.4245,-242 1261.4245,-264 1383.4245,-264 1383.4245,-242 1261.4245,-242"/>
<polygon fill="none" stroke="#000000" points="1261.4245,-242 1261.4245,-264 1383.4245,-264 1383.4245,-242 1261.4245,-242"/>
<text text-anchor="start" x="1303.543" y="-251" font-family="Times,serif" font-weight="bold" font-size="10.00" fill="#000000">Spectator</text>
<polygon fill="none" stroke="#000000" points="1261.4245,-220 1261.4245,-242 1383.4245,-242 1383.4245,-220 1261.4245,-220"/>
<text text-anchor="start" x="1266.4245" y="-229" font-family="Times,serif" text-decoration="underline" font-size="10.00" fill="#000000">id</text>
<text text-anchor="start" x="1274.2035" y="-229" font-family="Times,serif" font-size="10.00" fill="#000000">: NUMBER</text>
<polygon fill="none" stroke="#000000" points="1261.4245,-198 1261.4245,-220 1383.4245,-220 1383.4245,-198 1261.4245,-198"/>
<text text-anchor="start" x="1266.4245" y="-206" font-family="Times,serif" font-size="10.00" fill="#000000">playerId: NUMBER</text>
<polygon fill="none" stroke="#000000" points="1261.4245,-176 1261.4245,-198 1383.4245,-198 1383.4245,-176 1261.4245,-176"/>
<text text-anchor="start" x="1266.4245" y="-184" font-family="Times,serif" font-size="10.00" fill="#000000">name: STRING</text>
<polygon fill="none" stroke="#000000" points="1261.4245,-154 1261.4245,-176 1383.4245,-176 1383.4245,-154 1261.4245,-154"/>
<text text-anchor="start" x="1266.4245" y="-162" font-family="Times,serif" font-size="10.00" fill="#000000">countryCode: STRING</text>
<polygon fill="none" stroke="#000000" points="1261.4245,-132 1261.4245,-154 1383.4245,-154 1383.4245,-132 1261.4245,-132"/>
<text text-anchor="start" x="1266.4245" y="-140" font-family="Times,serif" font-size="10.00" fill="#000000">rank: NUMBER</text>
<polygon fill="none" stroke="#000000" points="1261.4245,-110 1261.4245,-132 1383.4245,-132 1383.4245,-110 1261.4245,-110"/>
<text text-anchor="start" x="1266.184" y="-118" font-family="Times,serif" font-size="10.00" fill="#000000">skillUncertainty: NUMBER</text>
<polygon fill="none" stroke="#000000" points="1261.4245,-88 1261.4245,-110 1383.4245,-110 1383.4245,-88 1261.4245,-88"/>
<text text-anchor="start" x="1266.4245" y="-96" font-family="Times,serif" font-size="10.00" fill="#000000">skill: STRING</text>
<polygon fill="none" stroke="#000000" points="1261.4245,-66 1261.4245,-88 1383.4245,-88 1383.4245,-66 1261.4245,-66"/>
<text text-anchor="start" x="1266.4245" y="-74" font-family="Times,serif" font-size="10.00" fill="#000000">createdAt: DATE</text>
<polygon fill="none" stroke="#000000" points="1261.4245,-44 1261.4245,-66 1383.4245,-66 1383.4245,-44 1261.4245,-44"/>
<text text-anchor="start" x="1266.4245" y="-52" font-family="Times,serif" font-size="10.00" fill="#000000">updatedAt: DATE</text>
<polygon fill="none" stroke="#000000" points="1261.4245,-22 1261.4245,-44 1383.4245,-44 1383.4245,-22 1261.4245,-22"/>
<text text-anchor="start" x="1266.4245" y="-31" font-family="Times,serif" font-style="italic" text-decoration="underline" font-size="10.00" fill="#000000">demoId</text>
<text text-anchor="start" x="1296.9715" y="-31" font-family="Times,serif" font-size="10.00" fill="#000000">: STRING</text>
<polygon fill="none" stroke="#000000" points="1261.4245,0 1261.4245,-22 1383.4245,-22 1383.4245,0 1261.4245,0"/>
<text text-anchor="start" x="1266.4245" y="-9" font-family="Times,serif" font-style="italic" text-decoration="underline" font-size="10.00" fill="#000000">userId</text>
<text text-anchor="start" x="1291.4105" y="-9" font-family="Times,serif" font-size="10.00" fill="#000000">: NUMBER</text>
</g>
<!-- Spectator&#45;&gt;Demo -->
<g id="edge5" class="edge">
<title>Spectator&#45;&gt;Demo</title>
<path fill="none" stroke="#000000" stroke-width=".75" d="M1255.2304,-153.8327C1175.5633,-179.7181 1043.2103,-222.7222 960.6171,-249.5584"/>
<polygon fill="#000000" stroke="#000000" stroke-width=".75" points="1255.6415,-153.6992 1262.1822,-154.4129 1258.4947,-152.7721 1261.3478,-151.845 1261.3478,-151.845 1261.3478,-151.845 1258.4947,-152.7721 1260.5135,-149.2772 1255.6415,-153.6992 1255.6415,-153.6992"/>
</g>
<!-- Spectator&#45;&gt;User -->
<g id="edge6" class="edge">
<title>Spectator&#45;&gt;User</title>
<path fill="none" stroke="#000000" stroke-width=".75" d="M1387.2075,-221.1661C1430.803,-281.1702 1487.9182,-359.7825 1530.7295,-418.7073"/>
<polygon fill="#000000" stroke="#000000" stroke-width=".75" points="1387.0901,-221.0046 1385.7478,-214.5635 1385.3268,-218.5776 1383.5634,-216.1505 1383.5634,-216.1505 1383.5634,-216.1505 1385.3268,-218.5776 1381.379,-217.7375 1387.0901,-221.0046 1387.0901,-221.0046"/>
</g>
<!-- AI -->
<g id="node6" class="node">
<title>AI</title>
<polygon fill="#add8e6" stroke="transparent" points="660.5313,-979.4138 660.5313,-1001.4138 764.5313,-1001.4138 764.5313,-979.4138 660.5313,-979.4138"/>
<polygon fill="none" stroke="#000000" points="660.5313,-979.4138 660.5313,-1001.4138 764.5313,-1001.4138 764.5313,-979.4138 660.5313,-979.4138"/>
<text text-anchor="start" x="707.2573" y="-988.4138" font-family="Times,serif" font-weight="bold" font-size="10.00" fill="#000000">AI</text>
<polygon fill="none" stroke="#000000" points="660.5313,-957.4138 660.5313,-979.4138 764.5313,-979.4138 764.5313,-957.4138 660.5313,-957.4138"/>
<text text-anchor="start" x="665.5313" y="-966.4138" font-family="Times,serif" text-decoration="underline" font-size="10.00" fill="#000000">id</text>
<text text-anchor="start" x="673.3103" y="-966.4138" font-family="Times,serif" font-size="10.00" fill="#000000">: NUMBER</text>
<polygon fill="none" stroke="#000000" points="660.5313,-935.4138 660.5313,-957.4138 764.5313,-957.4138 764.5313,-935.4138 660.5313,-935.4138"/>
<text text-anchor="start" x="665.5313" y="-943.4138" font-family="Times,serif" font-size="10.00" fill="#000000">aiId: NUMBER</text>
<polygon fill="none" stroke="#000000" points="660.5313,-913.4138 660.5313,-935.4138 764.5313,-935.4138 764.5313,-913.4138 660.5313,-913.4138"/>
<text text-anchor="start" x="665.5313" y="-921.4138" font-family="Times,serif" font-size="10.00" fill="#000000">shortName: STRING</text>
<polygon fill="none" stroke="#000000" points="660.5313,-891.4138 660.5313,-913.4138 764.5313,-913.4138 764.5313,-891.4138 660.5313,-891.4138"/>
<text text-anchor="start" x="665.5313" y="-899.4138" font-family="Times,serif" font-size="10.00" fill="#000000">name: STRING</text>
<polygon fill="none" stroke="#000000" points="660.5313,-869.4138 660.5313,-891.4138 764.5313,-891.4138 764.5313,-869.4138 660.5313,-869.4138"/>
<text text-anchor="start" x="665.5313" y="-877.4138" font-family="Times,serif" font-size="10.00" fill="#000000">host: BOOLEAN</text>
<polygon fill="none" stroke="#000000" points="660.5313,-847.4138 660.5313,-869.4138 764.5313,-869.4138 764.5313,-847.4138 660.5313,-847.4138"/>
<text text-anchor="start" x="665.5313" y="-855.4138" font-family="Times,serif" font-size="10.00" fill="#000000">startPos: JSON</text>
<polygon fill="none" stroke="#000000" points="660.5313,-825.4138 660.5313,-847.4138 764.5313,-847.4138 764.5313,-825.4138 660.5313,-825.4138"/>
<text text-anchor="start" x="665.5313" y="-833.4138" font-family="Times,serif" font-size="10.00" fill="#000000">handicap: NUMBER</text>
<polygon fill="none" stroke="#000000" points="660.5313,-803.4138 660.5313,-825.4138 764.5313,-825.4138 764.5313,-803.4138 660.5313,-803.4138"/>
<text text-anchor="start" x="665.5313" y="-811.4138" font-family="Times,serif" font-size="10.00" fill="#000000">faction: STRING</text>
<polygon fill="none" stroke="#000000" points="660.5313,-781.4138 660.5313,-803.4138 764.5313,-803.4138 764.5313,-781.4138 660.5313,-781.4138"/>
<text text-anchor="start" x="665.5313" y="-789.4138" font-family="Times,serif" font-size="10.00" fill="#000000">rgbColor: JSON</text>
<polygon fill="none" stroke="#000000" points="660.5313,-759.4138 660.5313,-781.4138 764.5313,-781.4138 764.5313,-759.4138 660.5313,-759.4138"/>
<text text-anchor="start" x="665.5313" y="-767.4138" font-family="Times,serif" font-size="10.00" fill="#000000">createdAt: DATE</text>
<polygon fill="none" stroke="#000000" points="660.5313,-737.4138 660.5313,-759.4138 764.5313,-759.4138 764.5313,-737.4138 660.5313,-737.4138"/>
<text text-anchor="start" x="665.5313" y="-745.4138" font-family="Times,serif" font-size="10.00" fill="#000000">updatedAt: DATE</text>
<polygon fill="none" stroke="#000000" points="660.5313,-715.4138 660.5313,-737.4138 764.5313,-737.4138 764.5313,-715.4138 660.5313,-715.4138"/>
<text text-anchor="start" x="665.4588" y="-724.4138" font-family="Times,serif" font-style="italic" text-decoration="underline" font-size="10.00" fill="#000000">allyTeamId</text>
<text text-anchor="start" x="711.5508" y="-724.4138" font-family="Times,serif" font-size="10.00" fill="#000000">: NUMBER</text>
</g>
<!-- AI&#45;&gt;AllyTeam -->
<g id="edge7" class="edge">
<title>AI&#45;&gt;AllyTeam</title>
<path fill="none" stroke="#000000" stroke-width=".75" d="M769.861,-816.7613C788.2941,-803.3689 808.7451,-788.5104 827.3073,-775.0242"/>
<polygon fill="#000000" stroke="#000000" stroke-width=".75" points="769.5727,-816.9707 763.1316,-818.3131 767.1457,-818.7341 764.7186,-820.4975 764.7186,-820.4975 764.7186,-820.4975 767.1457,-818.7341 766.3056,-822.6818 769.5727,-816.9707 769.5727,-816.9707"/>
</g>
<!-- Alias -->
<g id="node8" class="node">
<title>Alias</title>
<polygon fill="#add8e6" stroke="transparent" points="1688.8592,-546.8451 1688.8592,-568.8451 1771.8592,-568.8451 1771.8592,-546.8451 1688.8592,-546.8451"/>
<polygon fill="none" stroke="#000000" points="1688.8592,-546.8451 1688.8592,-568.8451 1771.8592,-568.8451 1771.8592,-546.8451 1688.8592,-546.8451"/>
<text text-anchor="start" x="1719.8067" y="-555.8451" font-family="Times,serif" font-weight="bold" font-size="10.00" fill="#000000">Alias</text>
<polygon fill="none" stroke="#000000" points="1688.8592,-524.8451 1688.8592,-546.8451 1771.8592,-546.8451 1771.8592,-524.8451 1688.8592,-524.8451"/>
<text text-anchor="start" x="1693.8592" y="-533.8451" font-family="Times,serif" text-decoration="underline" font-size="10.00" fill="#000000">id</text>
<text text-anchor="start" x="1701.6382" y="-533.8451" font-family="Times,serif" font-size="10.00" fill="#000000">: NUMBER</text>
<polygon fill="none" stroke="#000000" points="1688.8592,-502.8451 1688.8592,-524.8451 1771.8592,-524.8451 1771.8592,-502.8451 1688.8592,-502.8451"/>
<text text-anchor="start" x="1693.8592" y="-510.8451" font-family="Times,serif" font-size="10.00" fill="#000000">alias: STRING</text>
<polygon fill="none" stroke="#000000" points="1688.8592,-480.8451 1688.8592,-502.8451 1771.8592,-502.8451 1771.8592,-480.8451 1688.8592,-480.8451"/>
<text text-anchor="start" x="1693.8592" y="-488.8451" font-family="Times,serif" font-size="10.00" fill="#000000">createdAt: DATE</text>
<polygon fill="none" stroke="#000000" points="1688.8592,-458.8451 1688.8592,-480.8451 1771.8592,-480.8451 1771.8592,-458.8451 1688.8592,-458.8451"/>
<text text-anchor="start" x="1693.5642" y="-466.8451" font-family="Times,serif" font-size="10.00" fill="#000000">updatedAt: DATE</text>
<polygon fill="none" stroke="#000000" points="1688.8592,-436.8451 1688.8592,-458.8451 1771.8592,-458.8451 1771.8592,-436.8451 1688.8592,-436.8451"/>
<text text-anchor="start" x="1693.8397" y="-445.8451" font-family="Times,serif" font-style="italic" text-decoration="underline" font-size="10.00" fill="#000000">userId</text>
<text text-anchor="start" x="1718.8257" y="-445.8451" font-family="Times,serif" font-size="10.00" fill="#000000">: NUMBER</text>
</g>
<!-- Alias&#45;&gt;User -->
<g id="edge8" class="edge">
<title>Alias&#45;&gt;User</title>
<path fill="none" stroke="#000000" stroke-width=".75" d="M1682.0372,-502.8451C1672.7035,-502.8451 1662.7973,-502.8451 1653.0982,-502.8451"/>
<polygon fill="#000000" stroke="#000000" stroke-width=".75" points="1682.0802,-502.8452 1688.0802,-505.5451 1685.0802,-502.8451 1688.0802,-502.8451 1688.0802,-502.8451 1688.0802,-502.8451 1685.0802,-502.8451 1688.0801,-500.1451 1682.0802,-502.8452 1682.0802,-502.8452"/>
</g>
<!-- BalanceChange -->
<g id="node9" class="node">
<title>BalanceChange</title>
<polygon fill="#add8e6" stroke="transparent" points="1677.9296,-1285.8451 1677.9296,-1307.8451 1832.9296,-1307.8451 1832.9296,-1285.8451 1677.9296,-1285.8451"/>
<polygon fill="none" stroke="#000000" points="1677.9296,-1285.8451 1677.9296,-1307.8451 1832.9296,-1307.8451 1832.9296,-1285.8451 1677.9296,-1285.8451"/>
<text text-anchor="start" x="1724.0541" y="-1294.8451" font-family="Times,serif" font-weight="bold" font-size="10.00" fill="#000000">BalanceChange</text>
<polygon fill="none" stroke="#000000" points="1677.9296,-1263.8451 1677.9296,-1285.8451 1832.9296,-1285.8451 1832.9296,-1263.8451 1677.9296,-1263.8451"/>
<text text-anchor="start" x="1682.9296" y="-1272.8451" font-family="Times,serif" text-decoration="underline" font-size="10.00" fill="#000000">id</text>
<text text-anchor="start" x="1690.7086" y="-1272.8451" font-family="Times,serif" font-size="10.00" fill="#000000">: NUMBER</text>
<polygon fill="none" stroke="#000000" points="1677.9296,-1241.8451 1677.9296,-1263.8451 1832.9296,-1263.8451 1832.9296,-1241.8451 1677.9296,-1241.8451"/>
<text text-anchor="start" x="1682.9296" y="-1249.8451" font-family="Times,serif" font-size="10.00" fill="#000000">sha: STRING</text>
<polygon fill="none" stroke="#000000" points="1677.9296,-1219.8451 1677.9296,-1241.8451 1832.9296,-1241.8451 1832.9296,-1219.8451 1677.9296,-1219.8451"/>
<text text-anchor="start" x="1682.9296" y="-1227.8451" font-family="Times,serif" font-size="10.00" fill="#000000">url: STRING</text>
<polygon fill="none" stroke="#000000" points="1677.9296,-1197.8451 1677.9296,-1219.8451 1832.9296,-1219.8451 1832.9296,-1197.8451 1677.9296,-1197.8451"/>
<text text-anchor="start" x="1682.9296" y="-1205.8451" font-family="Times,serif" font-size="10.00" fill="#000000">date: DATE</text>
<polygon fill="none" stroke="#000000" points="1677.9296,-1175.8451 1677.9296,-1197.8451 1832.9296,-1197.8451 1832.9296,-1175.8451 1677.9296,-1175.8451"/>
<text text-anchor="start" x="1682.9296" y="-1183.8451" font-family="Times,serif" font-size="10.00" fill="#000000">message: STRING</text>
<polygon fill="none" stroke="#000000" points="1677.9296,-1153.8451 1677.9296,-1175.8451 1832.9296,-1175.8451 1832.9296,-1153.8451 1677.9296,-1153.8451"/>
<text text-anchor="start" x="1682.9296" y="-1161.8451" font-family="Times,serif" font-size="10.00" fill="#000000">createdAt: DATE</text>
<polygon fill="none" stroke="#000000" points="1677.9296,-1131.8451 1677.9296,-1153.8451 1832.9296,-1153.8451 1832.9296,-1131.8451 1677.9296,-1131.8451"/>
<text text-anchor="start" x="1682.9296" y="-1139.8451" font-family="Times,serif" font-size="10.00" fill="#000000">updatedAt: DATE</text>
<polygon fill="none" stroke="#000000" points="1677.9296,-1109.8451 1677.9296,-1131.8451 1832.9296,-1131.8451 1832.9296,-1109.8451 1677.9296,-1109.8451"/>
<text text-anchor="start" x="1682.5341" y="-1118.8451" font-family="Times,serif" font-style="italic" text-decoration="underline" font-size="10.00" fill="#000000">balanceChangeAuthorId</text>
<text text-anchor="start" x="1780.2721" y="-1118.8451" font-family="Times,serif" font-size="10.00" fill="#000000">: NUMBER</text>
</g>
<!-- BalanceChangeAuthor -->
<g id="node10" class="node">
<title>BalanceChangeAuthor</title>
<polygon fill="#add8e6" stroke="transparent" points="1952.9296,-1263.8451 1952.9296,-1285.8451 2053.9296,-1285.8451 2053.9296,-1263.8451 1952.9296,-1263.8451"/>
<polygon fill="none" stroke="#000000" points="1952.9296,-1263.8451 1952.9296,-1285.8451 2053.9296,-1285.8451 2053.9296,-1263.8451 1952.9296,-1263.8451"/>
<text text-anchor="start" x="1957.8906" y="-1272.8451" font-family="Times,serif" font-weight="bold" font-size="10.00" fill="#000000">BalanceChangeAuthor</text>
<polygon fill="none" stroke="#000000" points="1952.9296,-1241.8451 1952.9296,-1263.8451 2053.9296,-1263.8451 2053.9296,-1241.8451 1952.9296,-1241.8451"/>
<text text-anchor="start" x="1957.9296" y="-1250.8451" font-family="Times,serif" text-decoration="underline" font-size="10.00" fill="#000000">id</text>
<text text-anchor="start" x="1965.7086" y="-1250.8451" font-family="Times,serif" font-size="10.00" fill="#000000">: NUMBER</text>
<polygon fill="none" stroke="#000000" points="1952.9296,-1219.8451 1952.9296,-1241.8451 2053.9296,-1241.8451 2053.9296,-1219.8451 1952.9296,-1219.8451"/>
<text text-anchor="start" x="1957.9296" y="-1227.8451" font-family="Times,serif" font-size="10.00" fill="#000000">name: STRING</text>
<polygon fill="none" stroke="#000000" points="1952.9296,-1197.8451 1952.9296,-1219.8451 2053.9296,-1219.8451 2053.9296,-1197.8451 1952.9296,-1197.8451"/>
<text text-anchor="start" x="1957.9296" y="-1205.8451" font-family="Times,serif" font-size="10.00" fill="#000000">img: STRING</text>
<polygon fill="none" stroke="#000000" points="1952.9296,-1175.8451 1952.9296,-1197.8451 2053.9296,-1197.8451 2053.9296,-1175.8451 1952.9296,-1175.8451"/>
<text text-anchor="start" x="1957.9296" y="-1183.8451" font-family="Times,serif" font-size="10.00" fill="#000000">url: STRING</text>
<polygon fill="none" stroke="#000000" points="1952.9296,-1153.8451 1952.9296,-1175.8451 2053.9296,-1175.8451 2053.9296,-1153.8451 1952.9296,-1153.8451"/>
<text text-anchor="start" x="1957.9296" y="-1161.8451" font-family="Times,serif" font-size="10.00" fill="#000000">createdAt: DATE</text>
<polygon fill="none" stroke="#000000" points="1952.9296,-1131.8451 1952.9296,-1153.8451 2053.9296,-1153.8451 2053.9296,-1131.8451 1952.9296,-1131.8451"/>
<text text-anchor="start" x="1957.9296" y="-1139.8451" font-family="Times,serif" font-size="10.00" fill="#000000">updatedAt: DATE</text>
</g>
<!-- BalanceChange&#45;&gt;BalanceChangeAuthor -->
<g id="edge9" class="edge">
<title>BalanceChange&#45;&gt;BalanceChangeAuthor</title>
<path fill="none" stroke="#000000" stroke-width=".75" d="M1838.7219,-1208.8451C1876.4442,-1208.8451 1919.7336,-1208.8451 1952.3916,-1208.8451"/>
<polygon fill="#000000" stroke="#000000" stroke-width=".75" points="1838.7179,-1208.8452 1832.718,-1206.1451 1835.7179,-1208.8451 1832.7179,-1208.8451 1832.7179,-1208.8451 1832.7179,-1208.8451 1835.7179,-1208.8451 1832.7179,-1211.5451 1838.7179,-1208.8452 1838.7179,-1208.8452"/>
</g>
<!-- BalanceChangeUnitDef -->
<g id="node11" class="node">
<title>BalanceChangeUnitDef</title>
<polygon fill="#add8e6" stroke="transparent" points="1443.9296,-1263.8451 1443.9296,-1285.8451 1570.9296,-1285.8451 1570.9296,-1263.8451 1443.9296,-1263.8451"/>
<polygon fill="none" stroke="#000000" points="1443.9296,-1263.8451 1443.9296,-1285.8451 1570.9296,-1285.8451 1570.9296,-1263.8451 1443.9296,-1263.8451"/>
<text text-anchor="start" x="1459.6721" y="-1272.8451" font-family="Times,serif" font-weight="bold" font-size="10.00" fill="#000000">BalanceChangeUnitDef</text>
<polygon fill="none" stroke="#000000" points="1443.9296,-1241.8451 1443.9296,-1263.8451 1570.9296,-1263.8451 1570.9296,-1241.8451 1443.9296,-1241.8451"/>
<text text-anchor="start" x="1448.9296" y="-1250.8451" font-family="Times,serif" text-decoration="underline" font-size="10.00" fill="#000000">id</text>
<text text-anchor="start" x="1456.7086" y="-1250.8451" font-family="Times,serif" font-size="10.00" fill="#000000">: NUMBER</text>
<polygon fill="none" stroke="#000000" points="1443.9296,-1219.8451 1443.9296,-1241.8451 1570.9296,-1241.8451 1570.9296,-1219.8451 1443.9296,-1219.8451"/>
<text text-anchor="start" x="1448.9296" y="-1227.8451" font-family="Times,serif" font-size="10.00" fill="#000000">unitDefId: STRING</text>
<polygon fill="none" stroke="#000000" points="1443.9296,-1197.8451 1443.9296,-1219.8451 1570.9296,-1219.8451 1570.9296,-1197.8451 1443.9296,-1197.8451"/>
<text text-anchor="start" x="1448.9296" y="-1205.8451" font-family="Times,serif" font-size="10.00" fill="#000000">changes: JSON</text>
<polygon fill="none" stroke="#000000" points="1443.9296,-1175.8451 1443.9296,-1197.8451 1570.9296,-1197.8451 1570.9296,-1175.8451 1443.9296,-1175.8451"/>
<text text-anchor="start" x="1448.9296" y="-1183.8451" font-family="Times,serif" font-size="10.00" fill="#000000">createdAt: DATE</text>
<polygon fill="none" stroke="#000000" points="1443.9296,-1153.8451 1443.9296,-1175.8451 1570.9296,-1175.8451 1570.9296,-1153.8451 1443.9296,-1153.8451"/>
<text text-anchor="start" x="1448.9296" y="-1161.8451" font-family="Times,serif" font-size="10.00" fill="#000000">updatedAt: DATE</text>
<polygon fill="none" stroke="#000000" points="1443.9296,-1131.8451 1443.9296,-1153.8451 1570.9296,-1153.8451 1570.9296,-1131.8451 1443.9296,-1131.8451"/>
<text text-anchor="start" x="1448.6976" y="-1140.8451" font-family="Times,serif" font-style="italic" text-decoration="underline" font-size="10.00" fill="#000000">balanceChangeId</text>
<text text-anchor="start" x="1518.1086" y="-1140.8451" font-family="Times,serif" font-size="10.00" fill="#000000">: NUMBER</text>
</g>
<!-- BalanceChangeUnitDef&#45;&gt;BalanceChange -->
<g id="edge10" class="edge">
<title>BalanceChangeUnitDef&#45;&gt;BalanceChange</title>
<path fill="none" stroke="#000000" stroke-width=".75" d="M1576.6652,-1208.8451C1608.0231,-1208.8451 1645.1485,-1208.8451 1677.3795,-1208.8451"/>
<polygon fill="#000000" stroke="#000000" stroke-width=".75" points="1576.4737,-1208.8452 1570.4738,-1206.1451 1573.4737,-1208.8451 1570.4737,-1208.8451 1570.4737,-1208.8451 1570.4737,-1208.8451 1573.4737,-1208.8451 1570.4737,-1211.5451 1576.4737,-1208.8452 1576.4737,-1208.8452"/>
</g>
</g>
</svg>
