<?xml version="1.0" encoding="UTF-8" standalone="no"?>
<!DOCTYPE svg PUBLIC "-//W3C//DTD SVG 1.1//EN"
 "http://www.w3.org/Graphics/SVG/1.1/DTD/svg11.dtd">
<!-- Generated by graphviz version 2.40.1 (20161225.0304)
 -->
<!-- Title: models_diagram Pages: 1 -->
<svg width="1650pt" height="1022pt"
 viewBox="0.00 0.00 1650.32 1021.79" xmlns="http://www.w3.org/2000/svg" xmlns:xlink="http://www.w3.org/1999/xlink">
<g id="graph0" class="graph" transform="scale(1 1) rotate(0) translate(36 985.7891)">
<title>models_diagram</title>
<polygon fill="#ffffff" stroke="transparent" points="-36,36 -36,-985.7891 1614.317,-985.7891 1614.317,36 -36,36"/>
<!-- Map -->
<g id="node1" class="node">
<title>Map</title>
<polygon fill="#add8e6" stroke="transparent" points="0,-749.8945 0,-771.8945 126,-771.8945 126,-749.8945 0,-749.8945"/>
<polygon fill="none" stroke="#000000" points="0,-749.8945 0,-771.8945 126,-771.8945 126,-749.8945 0,-749.8945"/>
<text text-anchor="start" x="53.836" y="-758.8945" font-family="Times,serif" font-weight="bold" font-size="10.00" fill="#000000">Map</text>
<polygon fill="none" stroke="#000000" points="0,-727.8945 0,-749.8945 126,-749.8945 126,-727.8945 0,-727.8945"/>
<text text-anchor="start" x="5" y="-736.8945" font-family="Times,serif" text-decoration="underline" font-size="10.00" fill="#000000">id</text>
<text text-anchor="start" x="12.779" y="-736.8945" font-family="Times,serif" font-size="10.00" fill="#000000">: NUMBER</text>
<polygon fill="none" stroke="#000000" points="0,-705.8945 0,-727.8945 126,-727.8945 126,-705.8945 0,-705.8945"/>
<text text-anchor="start" x="5" y="-713.8945" font-family="Times,serif" font-size="10.00" fill="#000000">scriptName: STRING</text>
<polygon fill="none" stroke="#000000" points="0,-683.8945 0,-705.8945 126,-705.8945 126,-683.8945 0,-683.8945"/>
<text text-anchor="start" x="5" y="-691.8945" font-family="Times,serif" font-size="10.00" fill="#000000">fileName: STRING</text>
<polygon fill="none" stroke="#000000" points="0,-661.8945 0,-683.8945 126,-683.8945 126,-661.8945 0,-661.8945"/>
<text text-anchor="start" x="5" y="-669.8945" font-family="Times,serif" font-size="10.00" fill="#000000">description: STRING</text>
<polygon fill="none" stroke="#000000" points="0,-639.8945 0,-661.8945 126,-661.8945 126,-639.8945 0,-639.8945"/>
<text text-anchor="start" x="5" y="-647.8945" font-family="Times,serif" font-size="10.00" fill="#000000">mapHardness: NUMBER</text>
<polygon fill="none" stroke="#000000" points="0,-617.8945 0,-639.8945 126,-639.8945 126,-617.8945 0,-617.8945"/>
<text text-anchor="start" x="5" y="-625.8945" font-family="Times,serif" font-size="10.00" fill="#000000">gravity: NUMBER</text>
<polygon fill="none" stroke="#000000" points="0,-595.8945 0,-617.8945 126,-617.8945 126,-595.8945 0,-595.8945"/>
<text text-anchor="start" x="5" y="-603.8945" font-family="Times,serif" font-size="10.00" fill="#000000">tidalStrength: NUMBER</text>
<polygon fill="none" stroke="#000000" points="0,-573.8945 0,-595.8945 126,-595.8945 126,-573.8945 0,-573.8945"/>
<text text-anchor="start" x="5" y="-581.8945" font-family="Times,serif" font-size="10.00" fill="#000000">maxMetal: NUMBER</text>
<polygon fill="none" stroke="#000000" points="0,-551.8945 0,-573.8945 126,-573.8945 126,-551.8945 0,-551.8945"/>
<text text-anchor="start" x="5" y="-559.8945" font-family="Times,serif" font-size="10.00" fill="#000000">extractorRadius: NUMBER</text>
<polygon fill="none" stroke="#000000" points="0,-529.8945 0,-551.8945 126,-551.8945 126,-529.8945 0,-529.8945"/>
<text text-anchor="start" x="5" y="-537.8945" font-family="Times,serif" font-size="10.00" fill="#000000">minWind: NUMBER</text>
<polygon fill="none" stroke="#000000" points="0,-507.8945 0,-529.8945 126,-529.8945 126,-507.8945 0,-507.8945"/>
<text text-anchor="start" x="5" y="-515.8945" font-family="Times,serif" font-size="10.00" fill="#000000">maxWind: NUMBER</text>
<polygon fill="none" stroke="#000000" points="0,-485.8945 0,-507.8945 126,-507.8945 126,-485.8945 0,-485.8945"/>
<text text-anchor="start" x="5" y="-493.8945" font-family="Times,serif" font-size="10.00" fill="#000000">startPositions: JSON</text>
<polygon fill="none" stroke="#000000" points="0,-463.8945 0,-485.8945 126,-485.8945 126,-463.8945 0,-463.8945"/>
<text text-anchor="start" x="5" y="-471.8945" font-family="Times,serif" font-size="10.00" fill="#000000">width: NUMBER</text>
<polygon fill="none" stroke="#000000" points="0,-441.8945 0,-463.8945 126,-463.8945 126,-441.8945 0,-441.8945"/>
<text text-anchor="start" x="5" y="-449.8945" font-family="Times,serif" font-size="10.00" fill="#000000">height: NUMBER</text>
<polygon fill="none" stroke="#000000" points="0,-419.8945 0,-441.8945 126,-441.8945 126,-419.8945 0,-419.8945"/>
<text text-anchor="start" x="5" y="-427.8945" font-family="Times,serif" font-size="10.00" fill="#000000">minDepth: NUMBER</text>
<polygon fill="none" stroke="#000000" points="0,-397.8945 0,-419.8945 126,-419.8945 126,-397.8945 0,-397.8945"/>
<text text-anchor="start" x="5" y="-405.8945" font-family="Times,serif" font-size="10.00" fill="#000000">maxDepth: NUMBER</text>
<polygon fill="none" stroke="#000000" points="0,-375.8945 0,-397.8945 126,-397.8945 126,-375.8945 0,-375.8945"/>
<text text-anchor="start" x="5" y="-383.8945" font-family="Times,serif" font-size="10.00" fill="#000000">name: STRING</text>
<polygon fill="none" stroke="#000000" points="0,-353.8945 0,-375.8945 126,-375.8945 126,-353.8945 0,-353.8945"/>
<text text-anchor="start" x="5" y="-361.8945" font-family="Times,serif" font-size="10.00" fill="#000000">shortname: STRING</text>
<polygon fill="none" stroke="#000000" points="0,-331.8945 0,-353.8945 126,-353.8945 126,-331.8945 0,-331.8945"/>
<text text-anchor="start" x="5" y="-339.8945" font-family="Times,serif" font-size="10.00" fill="#000000">author: STRING</text>
<polygon fill="none" stroke="#000000" points="0,-309.8945 0,-331.8945 126,-331.8945 126,-309.8945 0,-309.8945"/>
<text text-anchor="start" x="5" y="-317.8945" font-family="Times,serif" font-size="10.00" fill="#000000">version: STRING</text>
<polygon fill="none" stroke="#000000" points="0,-287.8945 0,-309.8945 126,-309.8945 126,-287.8945 0,-287.8945"/>
<text text-anchor="start" x="5" y="-295.8945" font-family="Times,serif" font-size="10.00" fill="#000000">mapfile: STRING</text>
<polygon fill="none" stroke="#000000" points="0,-265.8945 0,-287.8945 126,-287.8945 126,-265.8945 0,-265.8945"/>
<text text-anchor="start" x="5" y="-273.8945" font-family="Times,serif" font-size="10.00" fill="#000000">modtype: NUMBER</text>
<polygon fill="none" stroke="#000000" points="0,-243.8945 0,-265.8945 126,-265.8945 126,-243.8945 0,-243.8945"/>
<text text-anchor="start" x="5" y="-251.8945" font-family="Times,serif" font-size="10.00" fill="#000000">notDeformable: BOOLEAN</text>
<polygon fill="none" stroke="#000000" points="0,-221.8945 0,-243.8945 126,-243.8945 126,-221.8945 0,-221.8945"/>
<text text-anchor="start" x="5" y="-229.8945" font-family="Times,serif" font-size="10.00" fill="#000000">voidWater: BOOLEAN</text>
<polygon fill="none" stroke="#000000" points="0,-199.8945 0,-221.8945 126,-221.8945 126,-199.8945 0,-199.8945"/>
<text text-anchor="start" x="5" y="-207.8945" font-family="Times,serif" font-size="10.00" fill="#000000">voidGround: BOOLEAN</text>
<polygon fill="none" stroke="#000000" points="0,-177.8945 0,-199.8945 126,-199.8945 126,-177.8945 0,-177.8945"/>
<text text-anchor="start" x="4.8185" y="-185.8945" font-family="Times,serif" font-size="10.00" fill="#000000">autoShowMetal: BOOLEAN</text>
<polygon fill="none" stroke="#000000" points="0,-155.8945 0,-177.8945 126,-177.8945 126,-155.8945 0,-155.8945"/>
<text text-anchor="start" x="5" y="-163.8945" font-family="Times,serif" font-size="10.00" fill="#000000">createdAt: DATE</text>
<polygon fill="none" stroke="#000000" points="0,-133.8945 0,-155.8945 126,-155.8945 126,-133.8945 0,-133.8945"/>
<text text-anchor="start" x="5" y="-141.8945" font-family="Times,serif" font-size="10.00" fill="#000000">updatedAt: DATE</text>
</g>
<!-- Demo -->
<g id="node2" class="node">
<title>Demo</title>
<polygon fill="#add8e6" stroke="transparent" points="728.4393,-386.5708 728.4393,-408.5708 848.4393,-408.5708 848.4393,-386.5708 728.4393,-386.5708"/>
<polygon fill="none" stroke="#000000" points="728.4393,-386.5708 728.4393,-408.5708 848.4393,-408.5708 848.4393,-386.5708 728.4393,-386.5708"/>
<text text-anchor="start" x="776.2208" y="-395.5708" font-family="Times,serif" font-weight="bold" font-size="10.00" fill="#000000">Demo</text>
<polygon fill="none" stroke="#000000" points="728.4393,-364.5708 728.4393,-386.5708 848.4393,-386.5708 848.4393,-364.5708 728.4393,-364.5708"/>
<text text-anchor="start" x="733.4393" y="-373.5708" font-family="Times,serif" text-decoration="underline" font-size="10.00" fill="#000000">id</text>
<text text-anchor="start" x="741.2183" y="-373.5708" font-family="Times,serif" font-size="10.00" fill="#000000">: STRING</text>
<polygon fill="none" stroke="#000000" points="728.4393,-342.5708 728.4393,-364.5708 848.4393,-364.5708 848.4393,-342.5708 728.4393,-342.5708"/>
<text text-anchor="start" x="733.4393" y="-350.5708" font-family="Times,serif" font-size="10.00" fill="#000000">fileName: STRING</text>
<polygon fill="none" stroke="#000000" points="728.4393,-320.5708 728.4393,-342.5708 848.4393,-342.5708 848.4393,-320.5708 728.4393,-320.5708"/>
<text text-anchor="start" x="733.4393" y="-328.5708" font-family="Times,serif" font-size="10.00" fill="#000000">engineVersion: STRING</text>
<polygon fill="none" stroke="#000000" points="728.4393,-298.5708 728.4393,-320.5708 848.4393,-320.5708 848.4393,-298.5708 728.4393,-298.5708"/>
<text text-anchor="start" x="733.4393" y="-306.5708" font-family="Times,serif" font-size="10.00" fill="#000000">gameVersion: STRING</text>
<polygon fill="none" stroke="#000000" points="728.4393,-276.5708 728.4393,-298.5708 848.4393,-298.5708 848.4393,-276.5708 728.4393,-276.5708"/>
<text text-anchor="start" x="733.4393" y="-284.5708" font-family="Times,serif" font-size="10.00" fill="#000000">startTime: DATE</text>
<polygon fill="none" stroke="#000000" points="728.4393,-254.5708 728.4393,-276.5708 848.4393,-276.5708 848.4393,-254.5708 728.4393,-254.5708"/>
<text text-anchor="start" x="733.4393" y="-262.5708" font-family="Times,serif" font-size="10.00" fill="#000000">durationMs: NUMBER</text>
<polygon fill="none" stroke="#000000" points="728.4393,-232.5708 728.4393,-254.5708 848.4393,-254.5708 848.4393,-232.5708 728.4393,-232.5708"/>
<text text-anchor="start" x="733.3078" y="-240.5708" font-family="Times,serif" font-size="10.00" fill="#000000">fullDurationMs: NUMBER</text>
<polygon fill="none" stroke="#000000" points="728.4393,-210.5708 728.4393,-232.5708 848.4393,-232.5708 848.4393,-210.5708 728.4393,-210.5708"/>
<text text-anchor="start" x="733.4393" y="-218.5708" font-family="Times,serif" font-size="10.00" fill="#000000">hostSettings: JSON</text>
<polygon fill="none" stroke="#000000" points="728.4393,-188.5708 728.4393,-210.5708 848.4393,-210.5708 848.4393,-188.5708 728.4393,-188.5708"/>
<text text-anchor="start" x="733.4393" y="-196.5708" font-family="Times,serif" font-size="10.00" fill="#000000">gameSettings: JSON</text>
<polygon fill="none" stroke="#000000" points="728.4393,-166.5708 728.4393,-188.5708 848.4393,-188.5708 848.4393,-166.5708 728.4393,-166.5708"/>
<text text-anchor="start" x="733.4393" y="-174.5708" font-family="Times,serif" font-size="10.00" fill="#000000">mapSettings: JSON</text>
<polygon fill="none" stroke="#000000" points="728.4393,-144.5708 728.4393,-166.5708 848.4393,-166.5708 848.4393,-144.5708 728.4393,-144.5708"/>
<text text-anchor="start" x="733.4393" y="-152.5708" font-family="Times,serif" font-size="10.00" fill="#000000">createdAt: DATE</text>
<polygon fill="none" stroke="#000000" points="728.4393,-122.5708 728.4393,-144.5708 848.4393,-144.5708 848.4393,-122.5708 728.4393,-122.5708"/>
<text text-anchor="start" x="733.4393" y="-130.5708" font-family="Times,serif" font-size="10.00" fill="#000000">updatedAt: DATE</text>
<polygon fill="none" stroke="#000000" points="728.4393,-100.5708 728.4393,-122.5708 848.4393,-122.5708 848.4393,-100.5708 728.4393,-100.5708"/>
<text text-anchor="start" x="733.4393" y="-109.5708" font-family="Times,serif" font-style="italic" text-decoration="underline" font-size="10.00" fill="#000000">mapId</text>
<text text-anchor="start" x="758.9863" y="-109.5708" font-family="Times,serif" font-size="10.00" fill="#000000">: NUMBER</text>
</g>
<!-- Demo&#45;&gt;Map -->
<g id="edge1" class="edge">
<title>Demo&#45;&gt;Map</title>
<path fill="none" stroke="#000000" stroke-width=".75" d="M722.0624,-272.7172C582.9136,-310.7583 262.2946,-398.4105 126.0725,-435.6515"/>
<polygon fill="#000000" stroke="#000000" stroke-width=".75" points="722.3591,-272.6361 728.8588,-273.6583 725.253,-271.845 728.1468,-271.0538 728.1468,-271.0538 728.1468,-271.0538 725.253,-271.845 727.4347,-268.4494 722.3591,-272.6361 722.3591,-272.6361"/>
</g>
<!-- AllyTeam -->
<g id="node3" class="node">
<title>AllyTeam</title>
<polygon fill="#add8e6" stroke="transparent" points="729.4393,-717.2183 729.4393,-739.2183 847.4393,-739.2183 847.4393,-717.2183 729.4393,-717.2183"/>
<polygon fill="none" stroke="#000000" points="729.4393,-717.2183 729.4393,-739.2183 847.4393,-739.2183 847.4393,-717.2183 729.4393,-717.2183"/>
<text text-anchor="start" x="768.1678" y="-726.2183" font-family="Times,serif" font-weight="bold" font-size="10.00" fill="#000000">AllyTeam</text>
<polygon fill="none" stroke="#000000" points="729.4393,-695.2183 729.4393,-717.2183 847.4393,-717.2183 847.4393,-695.2183 729.4393,-695.2183"/>
<text text-anchor="start" x="734.4393" y="-704.2183" font-family="Times,serif" text-decoration="underline" font-size="10.00" fill="#000000">id</text>
<text text-anchor="start" x="742.2183" y="-704.2183" font-family="Times,serif" font-size="10.00" fill="#000000">: NUMBER</text>
<polygon fill="none" stroke="#000000" points="729.4393,-673.2183 729.4393,-695.2183 847.4393,-695.2183 847.4393,-673.2183 729.4393,-673.2183"/>
<text text-anchor="start" x="734.4393" y="-681.2183" font-family="Times,serif" font-size="10.00" fill="#000000">allyTeamId: NUMBER</text>
<polygon fill="none" stroke="#000000" points="729.4393,-651.2183 729.4393,-673.2183 847.4393,-673.2183 847.4393,-651.2183 729.4393,-651.2183"/>
<text text-anchor="start" x="734.4393" y="-659.2183" font-family="Times,serif" font-size="10.00" fill="#000000">startBox: JSON</text>
<polygon fill="none" stroke="#000000" points="729.4393,-629.2183 729.4393,-651.2183 847.4393,-651.2183 847.4393,-629.2183 729.4393,-629.2183"/>
<text text-anchor="start" x="734.1468" y="-637.2183" font-family="Times,serif" font-size="10.00" fill="#000000">winningTeam: BOOLEAN</text>
<polygon fill="none" stroke="#000000" points="729.4393,-607.2183 729.4393,-629.2183 847.4393,-629.2183 847.4393,-607.2183 729.4393,-607.2183"/>
<text text-anchor="start" x="734.4393" y="-615.2183" font-family="Times,serif" font-size="10.00" fill="#000000">createdAt: DATE</text>
<polygon fill="none" stroke="#000000" points="729.4393,-585.2183 729.4393,-607.2183 847.4393,-607.2183 847.4393,-585.2183 729.4393,-585.2183"/>
<text text-anchor="start" x="734.4393" y="-593.2183" font-family="Times,serif" font-size="10.00" fill="#000000">updatedAt: DATE</text>
<polygon fill="none" stroke="#000000" points="729.4393,-563.2183 729.4393,-585.2183 847.4393,-585.2183 847.4393,-563.2183 729.4393,-563.2183"/>
<text text-anchor="start" x="734.4393" y="-572.2183" font-family="Times,serif" font-style="italic" text-decoration="underline" font-size="10.00" fill="#000000">demoId</text>
<text text-anchor="start" x="764.9863" y="-572.2183" font-family="Times,serif" font-size="10.00" fill="#000000">: STRING</text>
</g>
<!-- AllyTeam&#45;&gt;Demo -->
<g id="edge2" class="edge">
<title>AllyTeam&#45;&gt;Demo</title>
<path fill="none" stroke="#000000" stroke-width=".75" d="M788.4393,-557.0014C788.4393,-512.6824 788.4393,-458.6829 788.4393,-408.6436"/>
<polygon fill="#000000" stroke="#000000" stroke-width=".75" points="788.4394,-557.1893 785.7393,-563.1893 788.4393,-560.1893 788.4393,-563.1893 788.4393,-563.1893 788.4393,-563.1893 788.4393,-560.1893 791.1393,-563.1894 788.4394,-557.1893 788.4394,-557.1893"/>
</g>
<!-- Player -->
<g id="node4" class="node">
<title>Player</title>
<polygon fill="#add8e6" stroke="transparent" points="1104.6734,-927.7891 1104.6734,-949.7891 1226.6734,-949.7891 1226.6734,-927.7891 1104.6734,-927.7891"/>
<polygon fill="none" stroke="#000000" points="1104.6734,-927.7891 1104.6734,-949.7891 1226.6734,-949.7891 1226.6734,-927.7891 1104.6734,-927.7891"/>
<text text-anchor="start" x="1152.9009" y="-936.7891" font-family="Times,serif" font-weight="bold" font-size="10.00" fill="#000000">Player</text>
<polygon fill="none" stroke="#000000" points="1104.6734,-905.7891 1104.6734,-927.7891 1226.6734,-927.7891 1226.6734,-905.7891 1104.6734,-905.7891"/>
<text text-anchor="start" x="1109.6734" y="-914.7891" font-family="Times,serif" text-decoration="underline" font-size="10.00" fill="#000000">id</text>
<text text-anchor="start" x="1117.4524" y="-914.7891" font-family="Times,serif" font-size="10.00" fill="#000000">: NUMBER</text>
<polygon fill="none" stroke="#000000" points="1104.6734,-883.7891 1104.6734,-905.7891 1226.6734,-905.7891 1226.6734,-883.7891 1104.6734,-883.7891"/>
<text text-anchor="start" x="1109.6734" y="-891.7891" font-family="Times,serif" font-size="10.00" fill="#000000">playerId: NUMBER</text>
<polygon fill="none" stroke="#000000" points="1104.6734,-861.7891 1104.6734,-883.7891 1226.6734,-883.7891 1226.6734,-861.7891 1104.6734,-861.7891"/>
<text text-anchor="start" x="1109.6734" y="-869.7891" font-family="Times,serif" font-size="10.00" fill="#000000">name: STRING</text>
<polygon fill="none" stroke="#000000" points="1104.6734,-839.7891 1104.6734,-861.7891 1226.6734,-861.7891 1226.6734,-839.7891 1104.6734,-839.7891"/>
<text text-anchor="start" x="1109.6734" y="-847.7891" font-family="Times,serif" font-size="10.00" fill="#000000">teamId: NUMBER</text>
<polygon fill="none" stroke="#000000" points="1104.6734,-817.7891 1104.6734,-839.7891 1226.6734,-839.7891 1226.6734,-817.7891 1104.6734,-817.7891"/>
<text text-anchor="start" x="1109.6734" y="-825.7891" font-family="Times,serif" font-size="10.00" fill="#000000">handicap: NUMBER</text>
<polygon fill="none" stroke="#000000" points="1104.6734,-795.7891 1104.6734,-817.7891 1226.6734,-817.7891 1226.6734,-795.7891 1104.6734,-795.7891"/>
<text text-anchor="start" x="1109.6734" y="-803.7891" font-family="Times,serif" font-size="10.00" fill="#000000">faction: STRING</text>
<polygon fill="none" stroke="#000000" points="1104.6734,-773.7891 1104.6734,-795.7891 1226.6734,-795.7891 1226.6734,-773.7891 1104.6734,-773.7891"/>
<text text-anchor="start" x="1109.6734" y="-781.7891" font-family="Times,serif" font-size="10.00" fill="#000000">countryCode: STRING</text>
<polygon fill="none" stroke="#000000" points="1104.6734,-751.7891 1104.6734,-773.7891 1226.6734,-773.7891 1226.6734,-751.7891 1104.6734,-751.7891"/>
<text text-anchor="start" x="1109.6734" y="-759.7891" font-family="Times,serif" font-size="10.00" fill="#000000">rgbColor: JSON</text>
<polygon fill="none" stroke="#000000" points="1104.6734,-729.7891 1104.6734,-751.7891 1226.6734,-751.7891 1226.6734,-729.7891 1104.6734,-729.7891"/>
<text text-anchor="start" x="1109.6734" y="-737.7891" font-family="Times,serif" font-size="10.00" fill="#000000">rank: NUMBER</text>
<polygon fill="none" stroke="#000000" points="1104.6734,-707.7891 1104.6734,-729.7891 1226.6734,-729.7891 1226.6734,-707.7891 1104.6734,-707.7891"/>
<text text-anchor="start" x="1109.4329" y="-715.7891" font-family="Times,serif" font-size="10.00" fill="#000000">skillUncertainty: NUMBER</text>
<polygon fill="none" stroke="#000000" points="1104.6734,-685.7891 1104.6734,-707.7891 1226.6734,-707.7891 1226.6734,-685.7891 1104.6734,-685.7891"/>
<text text-anchor="start" x="1109.6734" y="-693.7891" font-family="Times,serif" font-size="10.00" fill="#000000">skill: STRING</text>
<polygon fill="none" stroke="#000000" points="1104.6734,-663.7891 1104.6734,-685.7891 1226.6734,-685.7891 1226.6734,-663.7891 1104.6734,-663.7891"/>
<text text-anchor="start" x="1109.6734" y="-671.7891" font-family="Times,serif" font-size="10.00" fill="#000000">createdAt: DATE</text>
<polygon fill="none" stroke="#000000" points="1104.6734,-641.7891 1104.6734,-663.7891 1226.6734,-663.7891 1226.6734,-641.7891 1104.6734,-641.7891"/>
<text text-anchor="start" x="1109.6734" y="-649.7891" font-family="Times,serif" font-size="10.00" fill="#000000">updatedAt: DATE</text>
<polygon fill="none" stroke="#000000" points="1104.6734,-619.7891 1104.6734,-641.7891 1226.6734,-641.7891 1226.6734,-619.7891 1104.6734,-619.7891"/>
<text text-anchor="start" x="1109.6734" y="-628.7891" font-family="Times,serif" font-style="italic" text-decoration="underline" font-size="10.00" fill="#000000">allyTeamId</text>
<text text-anchor="start" x="1155.7654" y="-628.7891" font-family="Times,serif" font-size="10.00" fill="#000000">: NUMBER</text>
<polygon fill="none" stroke="#000000" points="1104.6734,-597.7891 1104.6734,-619.7891 1226.6734,-619.7891 1226.6734,-597.7891 1104.6734,-597.7891"/>
<text text-anchor="start" x="1109.6734" y="-606.7891" font-family="Times,serif" font-style="italic" text-decoration="underline" font-size="10.00" fill="#000000">userId</text>
<text text-anchor="start" x="1134.6594" y="-606.7891" font-family="Times,serif" font-size="10.00" fill="#000000">: NUMBER</text>
</g>
<!-- Player&#45;&gt;AllyTeam -->
<g id="edge3" class="edge">
<title>Player&#45;&gt;AllyTeam</title>
<path fill="none" stroke="#000000" stroke-width=".75" d="M1098.7294,-752.0376C1027.4271,-728.8701 915.6541,-692.5529 847.5149,-670.4131"/>
<polygon fill="#000000" stroke="#000000" stroke-width=".75" points="1098.9386,-752.1056 1103.8106,-756.5276 1101.7918,-753.0326 1104.645,-753.9597 1104.645,-753.9597 1104.645,-753.9597 1101.7918,-753.0326 1105.4794,-751.3919 1098.9386,-752.1056 1098.9386,-752.1056"/>
</g>
<!-- User -->
<g id="node7" class="node">
<title>User</title>
<polygon fill="#add8e6" stroke="transparent" points="1337.817,-529.8945 1337.817,-551.8945 1459.817,-551.8945 1459.817,-529.8945 1337.817,-529.8945"/>
<polygon fill="none" stroke="#000000" points="1337.817,-529.8945 1337.817,-551.8945 1459.817,-551.8945 1459.817,-529.8945 1337.817,-529.8945"/>
<text text-anchor="start" x="1389.379" y="-538.8945" font-family="Times,serif" font-weight="bold" font-size="10.00" fill="#000000">User</text>
<polygon fill="none" stroke="#000000" points="1337.817,-507.8945 1337.817,-529.8945 1459.817,-529.8945 1459.817,-507.8945 1337.817,-507.8945"/>
<text text-anchor="start" x="1342.817" y="-516.8945" font-family="Times,serif" text-decoration="underline" font-size="10.00" fill="#000000">id</text>
<text text-anchor="start" x="1350.596" y="-516.8945" font-family="Times,serif" font-size="10.00" fill="#000000">: NUMBER</text>
<polygon fill="none" stroke="#000000" points="1337.817,-485.8945 1337.817,-507.8945 1459.817,-507.8945 1459.817,-485.8945 1337.817,-485.8945"/>
<text text-anchor="start" x="1342.817" y="-493.8945" font-family="Times,serif" font-size="10.00" fill="#000000">username: STRING</text>
<polygon fill="none" stroke="#000000" points="1337.817,-463.8945 1337.817,-485.8945 1459.817,-485.8945 1459.817,-463.8945 1337.817,-463.8945"/>
<text text-anchor="start" x="1342.817" y="-471.8945" font-family="Times,serif" font-size="10.00" fill="#000000">countryCode: STRING</text>
<polygon fill="none" stroke="#000000" points="1337.817,-441.8945 1337.817,-463.8945 1459.817,-463.8945 1459.817,-441.8945 1337.817,-441.8945"/>
<text text-anchor="start" x="1342.817" y="-449.8945" font-family="Times,serif" font-size="10.00" fill="#000000">rank: NUMBER</text>
<polygon fill="none" stroke="#000000" points="1337.817,-419.8945 1337.817,-441.8945 1459.817,-441.8945 1459.817,-419.8945 1337.817,-419.8945"/>
<text text-anchor="start" x="1342.817" y="-427.8945" font-family="Times,serif" font-size="10.00" fill="#000000">skill: STRING</text>
<polygon fill="none" stroke="#000000" points="1337.817,-397.8945 1337.817,-419.8945 1459.817,-419.8945 1459.817,-397.8945 1337.817,-397.8945"/>
<text text-anchor="start" x="1342.5765" y="-405.8945" font-family="Times,serif" font-size="10.00" fill="#000000">skillUncertainty: NUMBER</text>
<polygon fill="none" stroke="#000000" points="1337.817,-375.8945 1337.817,-397.8945 1459.817,-397.8945 1459.817,-375.8945 1337.817,-375.8945"/>
<text text-anchor="start" x="1342.817" y="-383.8945" font-family="Times,serif" font-size="10.00" fill="#000000">createdAt: DATE</text>
<polygon fill="none" stroke="#000000" points="1337.817,-353.8945 1337.817,-375.8945 1459.817,-375.8945 1459.817,-353.8945 1337.817,-353.8945"/>
<text text-anchor="start" x="1342.817" y="-361.8945" font-family="Times,serif" font-size="10.00" fill="#000000">updatedAt: DATE</text>
</g>
<!-- Player&#45;&gt;User -->
<g id="edge4" class="edge">
<title>Player&#45;&gt;User</title>
<path fill="none" stroke="#000000" stroke-width=".75" d="M1230.5662,-684.4718C1264.106,-638.3082 1304.802,-582.295 1337.7683,-536.9208"/>
<polygon fill="#000000" stroke="#000000" stroke-width=".75" points="1230.4559,-684.6237 1224.7448,-687.8908 1228.6925,-687.0507 1226.9292,-689.4778 1226.9292,-689.4778 1226.9292,-689.4778 1228.6925,-687.0507 1229.1135,-691.0648 1230.4559,-684.6237 1230.4559,-684.6237"/>
</g>
<!-- Spectator -->
<g id="node5" class="node">
<title>Spectator</title>
<polygon fill="#add8e6" stroke="transparent" points="1104.6734,-242 1104.6734,-264 1226.6734,-264 1226.6734,-242 1104.6734,-242"/>
<polygon fill="none" stroke="#000000" points="1104.6734,-242 1104.6734,-264 1226.6734,-264 1226.6734,-242 1104.6734,-242"/>
<text text-anchor="start" x="1146.7919" y="-251" font-family="Times,serif" font-weight="bold" font-size="10.00" fill="#000000">Spectator</text>
<polygon fill="none" stroke="#000000" points="1104.6734,-220 1104.6734,-242 1226.6734,-242 1226.6734,-220 1104.6734,-220"/>
<text text-anchor="start" x="1109.6734" y="-229" font-family="Times,serif" text-decoration="underline" font-size="10.00" fill="#000000">id</text>
<text text-anchor="start" x="1117.4524" y="-229" font-family="Times,serif" font-size="10.00" fill="#000000">: NUMBER</text>
<polygon fill="none" stroke="#000000" points="1104.6734,-198 1104.6734,-220 1226.6734,-220 1226.6734,-198 1104.6734,-198"/>
<text text-anchor="start" x="1109.6734" y="-206" font-family="Times,serif" font-size="10.00" fill="#000000">playerId: NUMBER</text>
<polygon fill="none" stroke="#000000" points="1104.6734,-176 1104.6734,-198 1226.6734,-198 1226.6734,-176 1104.6734,-176"/>
<text text-anchor="start" x="1109.6734" y="-184" font-family="Times,serif" font-size="10.00" fill="#000000">name: STRING</text>
<polygon fill="none" stroke="#000000" points="1104.6734,-154 1104.6734,-176 1226.6734,-176 1226.6734,-154 1104.6734,-154"/>
<text text-anchor="start" x="1109.6734" y="-162" font-family="Times,serif" font-size="10.00" fill="#000000">countryCode: STRING</text>
<polygon fill="none" stroke="#000000" points="1104.6734,-132 1104.6734,-154 1226.6734,-154 1226.6734,-132 1104.6734,-132"/>
<text text-anchor="start" x="1109.6734" y="-140" font-family="Times,serif" font-size="10.00" fill="#000000">rank: NUMBER</text>
<polygon fill="none" stroke="#000000" points="1104.6734,-110 1104.6734,-132 1226.6734,-132 1226.6734,-110 1104.6734,-110"/>
<text text-anchor="start" x="1109.4329" y="-118" font-family="Times,serif" font-size="10.00" fill="#000000">skillUncertainty: NUMBER</text>
<polygon fill="none" stroke="#000000" points="1104.6734,-88 1104.6734,-110 1226.6734,-110 1226.6734,-88 1104.6734,-88"/>
<text text-anchor="start" x="1109.6734" y="-96" font-family="Times,serif" font-size="10.00" fill="#000000">skill: STRING</text>
<polygon fill="none" stroke="#000000" points="1104.6734,-66 1104.6734,-88 1226.6734,-88 1226.6734,-66 1104.6734,-66"/>
<text text-anchor="start" x="1109.6734" y="-74" font-family="Times,serif" font-size="10.00" fill="#000000">createdAt: DATE</text>
<polygon fill="none" stroke="#000000" points="1104.6734,-44 1104.6734,-66 1226.6734,-66 1226.6734,-44 1104.6734,-44"/>
<text text-anchor="start" x="1109.6734" y="-52" font-family="Times,serif" font-size="10.00" fill="#000000">updatedAt: DATE</text>
<polygon fill="none" stroke="#000000" points="1104.6734,-22 1104.6734,-44 1226.6734,-44 1226.6734,-22 1104.6734,-22"/>
<text text-anchor="start" x="1109.6734" y="-31" font-family="Times,serif" font-style="italic" text-decoration="underline" font-size="10.00" fill="#000000">demoId</text>
<text text-anchor="start" x="1140.2204" y="-31" font-family="Times,serif" font-size="10.00" fill="#000000">: STRING</text>
<polygon fill="none" stroke="#000000" points="1104.6734,0 1104.6734,-22 1226.6734,-22 1226.6734,0 1104.6734,0"/>
<text text-anchor="start" x="1109.6734" y="-9" font-family="Times,serif" font-style="italic" text-decoration="underline" font-size="10.00" fill="#000000">userId</text>
<text text-anchor="start" x="1134.6594" y="-9" font-family="Times,serif" font-size="10.00" fill="#000000">: NUMBER</text>
</g>
<!-- Spectator&#45;&gt;Demo -->
<g id="edge5" class="edge">
<title>Spectator&#45;&gt;Demo</title>
<path fill="none" stroke="#000000" stroke-width=".75" d="M1098.7559,-153.7428C1027.7782,-176.8049 916.6758,-212.9042 848.4448,-235.0738"/>
<polygon fill="#000000" stroke="#000000" stroke-width=".75" points="1098.9386,-153.6835 1105.4794,-154.3972 1101.7918,-152.7564 1104.645,-151.8293 1104.645,-151.8293 1104.645,-151.8293 1101.7918,-152.7564 1103.8106,-149.2615 1098.9386,-153.6835 1098.9386,-153.6835"/>
</g>
<!-- Spectator&#45;&gt;User -->
<g id="edge6" class="edge">
<title>Spectator&#45;&gt;User</title>
<path fill="none" stroke="#000000" stroke-width=".75" d="M1230.5662,-221.3173C1264.106,-267.4808 1304.802,-323.4941 1337.7683,-368.8682"/>
<polygon fill="#000000" stroke="#000000" stroke-width=".75" points="1230.4559,-221.1654 1229.1135,-214.7242 1228.6925,-218.7383 1226.9292,-216.3113 1226.9292,-216.3113 1226.9292,-216.3113 1228.6925,-218.7383 1224.7448,-217.8983 1230.4559,-221.1654 1230.4559,-221.1654"/>
</g>
<!-- AI -->
<g id="node6" class="node">
<title>AI</title>
<polygon fill="#add8e6" stroke="transparent" points="598.0974,-828.7295 598.0974,-850.7295 702.0974,-850.7295 702.0974,-828.7295 598.0974,-828.7295"/>
<polygon fill="none" stroke="#000000" points="598.0974,-828.7295 598.0974,-850.7295 702.0974,-850.7295 702.0974,-828.7295 598.0974,-828.7295"/>
<text text-anchor="start" x="644.8234" y="-837.7295" font-family="Times,serif" font-weight="bold" font-size="10.00" fill="#000000">AI</text>
<polygon fill="none" stroke="#000000" points="598.0974,-806.7295 598.0974,-828.7295 702.0974,-828.7295 702.0974,-806.7295 598.0974,-806.7295"/>
<text text-anchor="start" x="603.0974" y="-815.7295" font-family="Times,serif" text-decoration="underline" font-size="10.00" fill="#000000">id</text>
<text text-anchor="start" x="610.8764" y="-815.7295" font-family="Times,serif" font-size="10.00" fill="#000000">: NUMBER</text>
<polygon fill="none" stroke="#000000" points="598.0974,-784.7295 598.0974,-806.7295 702.0974,-806.7295 702.0974,-784.7295 598.0974,-784.7295"/>
<text text-anchor="start" x="603.0974" y="-792.7295" font-family="Times,serif" font-size="10.00" fill="#000000">aiId: NUMBER</text>
<polygon fill="none" stroke="#000000" points="598.0974,-762.7295 598.0974,-784.7295 702.0974,-784.7295 702.0974,-762.7295 598.0974,-762.7295"/>
<text text-anchor="start" x="603.0974" y="-770.7295" font-family="Times,serif" font-size="10.00" fill="#000000">shortName: STRING</text>
<polygon fill="none" stroke="#000000" points="598.0974,-740.7295 598.0974,-762.7295 702.0974,-762.7295 702.0974,-740.7295 598.0974,-740.7295"/>
<text text-anchor="start" x="603.0974" y="-748.7295" font-family="Times,serif" font-size="10.00" fill="#000000">name: STRING</text>
<polygon fill="none" stroke="#000000" points="598.0974,-718.7295 598.0974,-740.7295 702.0974,-740.7295 702.0974,-718.7295 598.0974,-718.7295"/>
<text text-anchor="start" x="603.0974" y="-726.7295" font-family="Times,serif" font-size="10.00" fill="#000000">host: BOOLEAN</text>
<polygon fill="none" stroke="#000000" points="598.0974,-696.7295 598.0974,-718.7295 702.0974,-718.7295 702.0974,-696.7295 598.0974,-696.7295"/>
<text text-anchor="start" x="603.0974" y="-704.7295" font-family="Times,serif" font-size="10.00" fill="#000000">createdAt: DATE</text>
<polygon fill="none" stroke="#000000" points="598.0974,-674.7295 598.0974,-696.7295 702.0974,-696.7295 702.0974,-674.7295 598.0974,-674.7295"/>
<text text-anchor="start" x="603.0974" y="-682.7295" font-family="Times,serif" font-size="10.00" fill="#000000">updatedAt: DATE</text>
<polygon fill="none" stroke="#000000" points="598.0974,-652.7295 598.0974,-674.7295 702.0974,-674.7295 702.0974,-652.7295 598.0974,-652.7295"/>
<text text-anchor="start" x="603.0249" y="-661.7295" font-family="Times,serif" font-style="italic" text-decoration="underline" font-size="10.00" fill="#000000">allyTeamId</text>
<text text-anchor="start" x="649.1169" y="-661.7295" font-family="Times,serif" font-size="10.00" fill="#000000">: NUMBER</text>
</g>
<!-- AI&#45;&gt;AllyTeam -->
<g id="edge7" class="edge">
<title>AI&#45;&gt;AllyTeam</title>
<path fill="none" stroke="#000000" stroke-width=".75" d="M707.3413,-710.1394C714.5275,-704.9183 721.8908,-699.5686 729.1082,-694.3248"/>
<polygon fill="#000000" stroke="#000000" stroke-width=".75" points="707.2526,-710.2038 700.8115,-711.5462 704.8256,-711.9672 702.3985,-713.7305 702.3985,-713.7305 702.3985,-713.7305 704.8256,-711.9672 703.9856,-715.9149 707.2526,-710.2038 707.2526,-710.2038"/>
</g>
<!-- Alias -->
<g id="node8" class="node">
<title>Alias</title>
<polygon fill="#add8e6" stroke="transparent" points="1495.817,-496.8945 1495.817,-518.8945 1578.817,-518.8945 1578.817,-496.8945 1495.817,-496.8945"/>
<polygon fill="none" stroke="#000000" points="1495.817,-496.8945 1495.817,-518.8945 1578.817,-518.8945 1578.817,-496.8945 1495.817,-496.8945"/>
<text text-anchor="start" x="1526.7645" y="-505.8945" font-family="Times,serif" font-weight="bold" font-size="10.00" fill="#000000">Alias</text>
<polygon fill="none" stroke="#000000" points="1495.817,-474.8945 1495.817,-496.8945 1578.817,-496.8945 1578.817,-474.8945 1495.817,-474.8945"/>
<text text-anchor="start" x="1500.817" y="-483.8945" font-family="Times,serif" text-decoration="underline" font-size="10.00" fill="#000000">id</text>
<text text-anchor="start" x="1508.596" y="-483.8945" font-family="Times,serif" font-size="10.00" fill="#000000">: NUMBER</text>
<polygon fill="none" stroke="#000000" points="1495.817,-452.8945 1495.817,-474.8945 1578.817,-474.8945 1578.817,-452.8945 1495.817,-452.8945"/>
<text text-anchor="start" x="1500.817" y="-460.8945" font-family="Times,serif" font-size="10.00" fill="#000000">alias: STRING</text>
<polygon fill="none" stroke="#000000" points="1495.817,-430.8945 1495.817,-452.8945 1578.817,-452.8945 1578.817,-430.8945 1495.817,-430.8945"/>
<text text-anchor="start" x="1500.817" y="-438.8945" font-family="Times,serif" font-size="10.00" fill="#000000">createdAt: DATE</text>
<polygon fill="none" stroke="#000000" points="1495.817,-408.8945 1495.817,-430.8945 1578.817,-430.8945 1578.817,-408.8945 1495.817,-408.8945"/>
<text text-anchor="start" x="1500.522" y="-416.8945" font-family="Times,serif" font-size="10.00" fill="#000000">updatedAt: DATE</text>
<polygon fill="none" stroke="#000000" points="1495.817,-386.8945 1495.817,-408.8945 1578.817,-408.8945 1578.817,-386.8945 1495.817,-386.8945"/>
<text text-anchor="start" x="1500.7975" y="-395.8945" font-family="Times,serif" font-style="italic" text-decoration="underline" font-size="10.00" fill="#000000">userId</text>
<text text-anchor="start" x="1525.7835" y="-395.8945" font-family="Times,serif" font-size="10.00" fill="#000000">: NUMBER</text>
</g>
<!-- Alias&#45;&gt;User -->
<g id="edge8" class="edge">
<title>Alias&#45;&gt;User</title>
<path fill="none" stroke="#000000" stroke-width=".75" d="M1488.9949,-452.8945C1479.6612,-452.8945 1469.755,-452.8945 1460.056,-452.8945"/>
<polygon fill="#000000" stroke="#000000" stroke-width=".75" points="1489.0379,-452.8946 1495.038,-455.5945 1492.0379,-452.8946 1495.0379,-452.8945 1495.0379,-452.8945 1495.0379,-452.8945 1492.0379,-452.8946 1495.0379,-450.1945 1489.0379,-452.8946 1489.0379,-452.8946"/>
</g>
</g>
</svg>
